<svg width="15" height="16" viewBox="0 0 15 16" fill="none" xmlns="http://www.w3.org/2000/svg">
<path d="M8.77943 11.9024L5.46431 10.0883C5.0315 10.5525 4.46952 10.8754 3.85141 11.015C3.2333 11.1546 2.58764 11.1044 1.99833 10.871C1.40902 10.6375 0.903322 10.2316 0.546947 9.70598C0.190571 9.18036 0 8.55933 0 7.9236C0 7.28787 0.190571 6.66684 0.546947 6.14122C0.903322 5.6156 1.40902 5.20968 1.99833 4.97623C2.58764 4.74278 3.2333 4.69259 3.85141 4.83217C4.46952 4.97176 5.0315 5.29467 5.46431 5.75894L8.78022 3.94483C8.59197 3.19707 8.68197 2.40608 9.03336 1.72013C9.38475 1.03419 9.9734 0.500385 10.689 0.218778C11.4045 -0.0628283 12.1979 -0.0729025 12.9204 0.190444C13.6428 0.453791 14.2447 0.972478 14.6133 1.64928C14.9819 2.32608 15.0918 3.11453 14.9225 3.86684C14.7531 4.61915 14.3162 5.28366 13.6935 5.73582C13.0708 6.18798 12.3051 6.39674 11.54 6.32298C10.7749 6.24921 10.0628 5.89798 9.53735 5.33512L6.22144 7.14923C6.34871 7.65731 6.34871 8.18909 6.22144 8.69717L9.53656 10.5113C10.0621 9.94842 10.7741 9.59719 11.5392 9.52343C12.3043 9.44966 13.07 9.65842 13.6927 10.1106C14.3154 10.5627 14.7523 11.2273 14.9217 11.9796C15.091 12.7319 14.9811 13.5203 14.6125 14.1971C14.2439 14.8739 13.642 15.3926 12.9196 15.656C12.1971 15.9193 11.4038 15.9092 10.6882 15.6276C9.97261 15.346 9.38396 14.8122 9.03257 14.1263C8.68118 13.4403 8.59118 12.6493 8.77943 11.9016V11.9024ZM3.15817 9.50758C3.57695 9.50758 3.97858 9.34065 4.2747 9.04353C4.57082 8.7464 4.73718 8.34341 4.73718 7.9232C4.73718 7.503 4.57082 7.10001 4.2747 6.80288C3.97858 6.50575 3.57695 6.33883 3.15817 6.33883C2.73939 6.33883 2.33777 6.50575 2.04165 6.80288C1.74553 7.10001 1.57917 7.503 1.57917 7.9232C1.57917 8.34341 1.74553 8.7464 2.04165 9.04353C2.33777 9.34065 2.73939 9.50758 3.15817 9.50758ZM11.8427 4.75445C12.2615 4.75445 12.6631 4.58753 12.9592 4.2904C13.2553 3.99327 13.4217 3.59028 13.4217 3.17007C13.4217 2.74987 13.2553 2.34688 12.9592 2.04975C12.6631 1.75262 12.2615 1.5857 11.8427 1.5857C11.4239 1.5857 11.0223 1.75262 10.7262 2.04975C10.4301 2.34688 10.2637 2.74987 10.2637 3.17007C10.2637 3.59028 10.4301 3.99327 10.7262 4.2904C11.0223 4.58753 11.4239 4.75445 11.8427 4.75445ZM11.8427 14.2607C12.2615 14.2607 12.6631 14.0938 12.9592 13.7967C13.2553 13.4995 13.4217 13.0965 13.4217 12.6763C13.4217 12.2561 13.2553 11.8531 12.9592 11.556C12.6631 11.2589 12.2615 11.092 11.8427 11.092C11.4239 11.092 11.0223 11.2589 10.7262 11.556C10.4301 11.8531 10.2637 12.2561 10.2637 12.6763C10.2637 13.0965 10.4301 13.4995 10.7262 13.7967C11.0223 14.0938 11.4239 14.2607 11.8427 14.2607Z" fill="white"/>
</svg>
