<svg width="15" height="14" viewBox="0 0 15 14" fill="none" xmlns="http://www.w3.org/2000/svg">
<path d="M4.03568 0.146446C3.84042 -0.0488157 3.52384 -0.0488157 3.32857 0.146446L0.146595 3.32843C-0.0486676 3.52369 -0.0486676 3.84027 0.146595 4.03553C0.341857 4.2308 0.658439 4.2308 0.853701 4.03553L3.68213 1.20711L6.51056 4.03553C6.70582 4.2308 7.0224 4.2308 7.21766 4.03553C7.41292 3.84027 7.41292 3.52369 7.21766 3.32843L4.03568 0.146446ZM4.18213 13.5L4.18213 0.5L3.18213 0.5L3.18213 13.5L4.18213 13.5Z" fill="white"/>
<path d="M10.3286 13.8536C10.5238 14.0488 10.8404 14.0488 11.0357 13.8536L14.2177 10.6716C14.4129 10.4763 14.4129 10.1597 14.2177 9.96447C14.0224 9.7692 13.7058 9.7692 13.5106 9.96447L10.6821 12.7929L7.8537 9.96447C7.65844 9.7692 7.34186 9.7692 7.1466 9.96447C6.95133 10.1597 6.95133 10.4763 7.1466 10.6716L10.3286 13.8536ZM10.1821 0.5L10.1821 13.5L11.1821 13.5L11.1821 0.5L10.1821 0.5Z" fill="white"/>
</svg>
