<svg width="13" height="13" viewBox="0 0 13 13" fill="none" xmlns="http://www.w3.org/2000/svg">
<path fill-rule="evenodd" clip-rule="evenodd" d="M0.330051 0.330051C0.532789 0.127374 0.807725 0.0135158 1.0944 0.0135158C1.38107 0.0135158 1.656 0.127374 1.85874 0.330051L6.49996 4.97126L11.1412 0.330051C11.2409 0.226794 11.3602 0.144432 11.4921 0.0877721C11.624 0.0311121 11.7659 0.00128822 11.9094 4.08196e-05C12.053 -0.00120658 12.1953 0.0261472 12.3282 0.0805064C12.461 0.134866 12.5818 0.215142 12.6833 0.31665C12.7848 0.418159 12.865 0.538867 12.9194 0.671732C12.9738 0.804596 13.0011 0.946957 12.9999 1.09051C12.9986 1.23406 12.9688 1.37592 12.9121 1.50782C12.8555 1.63972 12.7731 1.75901 12.6699 1.85874L8.02865 6.49996L12.6699 11.1412C12.7731 11.2409 12.8555 11.3602 12.9121 11.4921C12.9688 11.624 12.9986 11.7659 12.9999 11.9094C13.0011 12.053 12.9738 12.1953 12.9194 12.3282C12.865 12.461 12.7848 12.5818 12.6833 12.6833C12.5818 12.7848 12.461 12.865 12.3282 12.9194C12.1953 12.9738 12.053 13.0011 11.9094 12.9999C11.7659 12.9986 11.624 12.9688 11.4921 12.9121C11.3602 12.8555 11.2409 12.7731 11.1412 12.6699L6.49996 8.02865L1.85874 12.6699C1.75901 12.7731 1.63972 12.8555 1.50782 12.9121C1.37592 12.9688 1.23406 12.9986 1.09051 12.9999C0.946957 13.0011 0.804596 12.9738 0.671732 12.9194C0.538867 12.865 0.418159 12.7848 0.31665 12.6833C0.215142 12.5818 0.134866 12.461 0.0805064 12.3282C0.0261472 12.1953 -0.00120658 12.053 4.08196e-05 11.9094C0.00128822 11.7659 0.0311121 11.624 0.0877721 11.4921C0.144432 11.3602 0.226794 11.2409 0.330051 11.1412L4.97126 6.49996L0.330051 1.85874C0.127374 1.656 0.0135158 1.38107 0.0135158 1.0944C0.0135158 0.807725 0.127374 0.532789 0.330051 0.330051Z" fill="white"/>
</svg>
