<svg width="301" height="65" viewBox="0 0 301 65" fill="none" xmlns="http://www.w3.org/2000/svg">
<rect width="301" height="65" rx="18" fill="#BABABA" fill-opacity="0.3"/>
<path d="M0 0H140C149.941 0 158 8.05888 158 18V47C158 56.9411 149.941 65 140 65H0V0Z" fill="#24B787" fill-opacity="0.5"/>
<path d="M93 18C93 8.05887 101.059 0 111 0H140C149.941 0 158 8.05888 158 18V47C158 56.9411 149.941 65 140 65H111C101.059 65 93 56.9411 93 47V18Z" fill="#24B787" fill-opacity="0.5"/>
<g clip-path="url(#clip0_567_17120)">
<path fill-rule="evenodd" clip-rule="evenodd" d="M137.845 29.1375C137.226 28.0475 136.543 27.0484 136.102 26.6872C136.077 26.6674 136.052 26.646 136.029 26.624C135.394 26.2695 134.82 26.042 134.345 25.9976C132.694 25.8437 130.989 25.7649 129.329 25.7696L128.938 31.4398C130.855 31.3264 132.766 31.1904 134.555 31.0633C136.022 30.9589 137.407 30.8606 138.684 30.7837C138.459 30.2769 138.165 29.703 137.845 29.1375ZM148.895 38.6372C149.209 38.8007 149.441 39.1099 149.49 39.4871V40.4248C149.57 41.0387 149.137 41.6014 148.523 41.6816L146.574 41.9419C146.583 41.8267 146.589 41.7109 146.592 41.5948V41.5922V41.5897V41.5886V41.5875V41.585L146.592 41.5826V41.5809V41.5802L146.592 41.5775V41.5751V41.5729V41.5727V41.57V41.5678L146.592 41.5652V41.5648V41.5627L146.593 41.5601V41.5577V41.5567V41.5552V41.5528V41.5502V41.5487V41.5477L146.593 41.5453V41.5427V41.5406V41.5404L146.593 41.5378V41.5352V41.5327V41.5325V41.5303V41.5279V41.5254V41.5245V41.5228L146.593 41.5179L146.593 41.5166V41.5155V41.513V41.5106V41.5059V41.5033V41.5007V41.4982V41.4958V41.4934V41.4924V41.4907V41.4883V41.4859L146.594 41.4845V41.4834V41.4808V41.4784L146.594 41.4763V41.4757V41.4733V41.4709V41.4684V41.4658V41.4635V41.4609V41.4602V41.4583V41.4559V41.4562V41.4549V41.4536V41.4512V41.4487V41.4469V41.4463V41.4439V41.4412V41.4388L146.593 41.3704V41.3595L146.593 41.3529L146.592 41.2837L146.592 41.2777C146.591 41.2537 146.59 41.2297 146.589 41.2055L146.589 41.1956L146.586 41.1253L146.585 41.1155L146.582 41.0539L146.581 41.043L146.581 41.0327L146.576 40.9685L146.576 40.9644L146.576 40.9603L146.57 40.8975L146.57 40.8859L146.569 40.8838L146.568 40.8722L146.564 40.8202L146.562 40.8075L146.562 40.799L146.555 40.7344L146.554 40.7248L146.546 40.6633L146.543 40.6382L146.542 40.6303L146.537 40.5881L146.536 40.5834L146.533 40.5607L146.525 40.5065L146.521 40.476L146.515 40.4398L146.509 40.4015L146.5 40.3483L146.499 40.3415L146.498 40.3376L146.487 40.2784L146.485 40.2645L146.483 40.2545L146.475 40.2129L146.474 40.2056L146.467 40.1726L146.467 40.1713L146.458 40.1302L146.457 40.1257L146.451 40.0952L146.449 40.089L146.44 40.0477L146.432 40.0136L146.431 40.0067L146.421 39.9654L146.416 39.9409L146.407 39.9064L146.393 39.8514L146.389 39.836L146.381 39.8019L146.369 39.7614L146.358 39.7207L146.347 39.6802L146.345 39.6729L146.335 39.6399L146.323 39.5996L146.311 39.5612L146.31 39.5593L146.298 39.5192L146.286 39.4828L146.283 39.4719L146.261 39.4055L146.257 39.3945L146.233 39.323L146.23 39.3163L146.217 39.2807L146.203 39.2411L146.201 39.237L146.188 39.2017L146.174 39.1625L146.159 39.1234L146.143 39.0845L146.129 39.0487L146.128 39.0454L146.112 39.0065C146.096 38.9681 146.079 38.9297 146.063 38.8914L146.062 38.8901L146.031 38.8205C145.718 38.124 145.278 37.4831 144.725 36.9305C143.527 35.7324 141.912 35.0632 140.218 35.0632C138.523 35.0632 136.908 35.7324 135.71 36.9305C134.512 38.1289 133.843 39.7436 133.843 41.4384C133.843 41.6906 133.858 41.9409 133.886 42.1884H117.111C117.14 41.9409 117.155 41.6906 117.155 41.4384C117.155 39.7436 116.486 38.1289 115.288 36.9305C114.089 35.7324 112.475 35.0632 110.78 35.0632C109.085 35.0632 107.47 35.7324 106.272 36.9305C105.583 37.62 105.069 38.4474 104.756 39.3482L104.747 39.3761L104.73 39.4256L104.727 39.4352L104.725 39.4419L104.714 39.4734L104.71 39.4875L104.697 39.5267L104.694 39.5362L104.685 39.5679L104.684 39.5707L104.676 39.5981L104.661 39.6463L104.655 39.6684L104.639 39.7235L104.633 39.7468L104.63 39.7582L104.621 39.7903L104.621 39.792L104.613 39.8218V39.8224L104.605 39.8542L104.597 39.8835L104.597 39.8863L104.595 39.8929L104.581 39.9484L104.576 39.9699L104.564 40.0222L104.559 40.0462L104.547 40.1014L104.544 40.1113L104.544 40.1122L104.543 40.1201L104.531 40.1788L104.526 40.2032L104.515 40.2587L104.514 40.2645L104.512 40.2752L104.5 40.3404L104.5 40.3417V40.3423L104.489 40.4096L104.485 40.4323L104.477 40.4842L104.473 40.5137L104.465 40.5665L104.465 40.5703L104.464 40.5737L104.463 40.5838L104.455 40.6429L104.453 40.6599L104.445 40.7259L104.445 40.7299L104.444 40.736L104.437 40.8024L104.437 40.8079L104.436 40.8114L104.43 40.8778L104.429 40.8949L104.423 40.9629L104.423 40.9648L104.423 40.9689L104.418 41.0357L104.418 41.0432L104.418 41.0469L104.414 41.1176L104.413 41.1247C104.412 41.1502 104.411 41.1755 104.41 41.201L104.41 41.2033C104.409 41.2256 104.408 41.2479 104.408 41.2704L104.408 41.2802V41.2871L104.406 41.3524V41.3597V41.3715L104.406 41.439V41.4508V41.4557V41.4624V41.4727V41.4742V41.486V41.49V41.4979L104.406 41.5069V41.5099V41.5217V41.5241V41.5335V41.5412V41.5453L104.406 41.5571V41.558L104.406 41.5689V41.5751L104.407 41.5805L104.407 41.592V41.5925L104.407 41.6044V41.6089L104.407 41.616L104.407 41.6261V41.6278L104.408 41.6396V41.643L104.408 41.6514L104.408 41.6599V41.6632L104.408 41.675V41.6769L104.409 41.6938L104.409 41.6987L104.41 41.7221L104.41 41.7275L104.411 41.7337L104.412 41.7568V41.7572L104.412 41.7613L104.412 41.7688L104.413 41.7784V41.7806L104.413 41.7924L104.416 41.8393L104.417 41.8459L104.417 41.8509L104.418 41.8627C104.424 41.9525 104.432 42.042 104.441 42.1312V42.1316L104.442 42.143L104.443 42.1483L104.445 42.165L104.445 42.1661L104.448 42.1894C104.46 42.2983 104.476 42.4063 104.495 42.5139L102.474 42.2443C101.86 42.164 101.427 41.6014 101.507 40.9875V40.05C101.56 39.6459 101.822 39.3202 102.169 39.1676L102.334 36.2957C102.417 36.3094 102.504 36.3094 102.592 36.2932L104.503 35.9417C104.909 35.8672 105.178 35.4776 105.104 35.0715C105.029 34.6654 104.64 34.3965 104.234 34.4711L102.419 34.8047L102.439 34.4516C102.461 34.056 102.685 33.7194 103.006 33.537C104.259 32.7219 105.935 32.0006 107.753 31.4237C109.592 30.8398 111.6 30.3932 113.474 30.1402C114.907 28.8433 116.844 27.2359 118.73 25.998C120.272 24.986 121.811 24.2057 123.096 23.9921L123.15 23.9833C123.151 23.9347 123.156 23.8856 123.166 23.8363L123.885 20.471C123.959 20.1176 124.271 19.8748 124.618 19.8752V19.8733H134.363C134.773 19.8733 135.105 20.201 135.113 20.6085L135.351 23.9195C136.612 24.273 138.032 25.1477 139.454 26.2453C140.978 27.4226 142.526 28.8639 143.855 30.1618C145.617 30.3958 146.256 30.5895 147.288 30.9032C147.403 30.9382 147.527 30.9757 147.939 31.0963C148.439 31.2433 148.76 31.7089 148.744 32.207L148.761 32.9239C148.72 32.9167 148.678 32.9132 148.635 32.9132H146.723C146.309 32.9132 145.973 33.249 145.973 33.6632C145.973 34.0774 146.309 34.4132 146.723 34.4132H148.635C148.69 34.4132 148.743 34.407 148.795 34.3959L148.895 38.6372ZM127.826 25.7977C126.274 25.8521 124.789 25.9862 123.459 26.2074C122.529 26.3619 121.277 27.0167 119.963 27.8792C118.52 28.826 117.042 30.006 115.809 31.0744C116.006 31.1435 116.217 31.2077 116.44 31.2665C117.251 31.4803 118.202 31.6151 119.253 31.659C121.645 31.7584 124.51 31.677 127.432 31.5242L127.826 25.7977ZM133.836 23.7037L133.669 21.3735H125.226L124.711 23.7714C125.903 23.6398 127.175 23.5629 128.483 23.5374C130.24 23.5031 132.061 23.5618 133.836 23.7037ZM117.25 34.391H119.125V36.266H117.25V34.391ZM119.125 36.266H121V38.141H119.125V36.266ZM121 34.391H122.875V36.266H121V34.391ZM122.875 36.266H124.75V38.141H122.875V36.266ZM124.75 34.391H126.625V36.266H124.75V34.391ZM126.625 36.266H128.5V38.141H126.625V36.266ZM128.5 34.391H130.375V36.266H128.5V34.391ZM130.375 36.266H132.25V38.141H130.375V36.266ZM132.25 34.391H134.125V36.266H132.25V34.391Z" fill="#24B787"/>
<path d="M140.219 36.7517C141.513 36.7517 142.685 37.2763 143.533 38.1246C144.382 38.9728 144.906 40.1447 144.906 41.4392C144.906 42.7333 144.381 43.9052 143.533 44.7536C142.685 45.6017 141.513 46.1265 140.219 46.1265C138.924 46.1265 137.753 45.6017 136.904 44.7536C136.056 43.9054 135.531 42.7335 135.531 41.4392C135.531 40.1449 136.056 38.973 136.904 38.1246C137.753 37.2763 138.925 36.7517 140.219 36.7517ZM110.781 36.7517C112.076 36.7517 113.247 37.2763 114.096 38.1246C114.944 38.9728 115.469 40.1447 115.469 41.4392C115.469 42.7333 114.944 43.9052 114.096 44.7536C113.247 45.6017 112.076 46.1265 110.781 46.1265C109.487 46.1265 108.315 45.6017 107.467 44.7536C106.619 43.9054 106.094 42.7335 106.094 41.4392C106.094 40.1449 106.618 38.973 107.467 38.1246C108.315 37.2761 109.487 36.7517 110.781 36.7517ZM111.975 40.2458C111.669 39.9405 111.247 39.7517 110.781 39.7517C110.315 39.7517 109.893 39.9405 109.588 40.2458C109.283 40.551 109.094 40.9731 109.094 41.4392C109.094 41.9051 109.283 42.3272 109.588 42.6325C109.893 42.9379 110.315 43.1267 110.781 43.1267C111.247 43.1267 111.669 42.9379 111.975 42.6325C112.28 42.3272 112.469 41.9051 112.469 41.4392C112.469 40.9729 112.28 40.551 111.975 40.2458ZM141.412 40.2458C141.107 39.9405 140.685 39.7517 140.219 39.7517C139.753 39.7517 139.331 39.9405 139.025 40.2458C138.72 40.551 138.531 40.9731 138.531 41.4392C138.531 41.9051 138.72 42.3272 139.025 42.6325C139.331 42.9379 139.753 43.1267 140.219 43.1267C140.685 43.1267 141.107 42.9379 141.412 42.6325C141.717 42.3272 141.906 41.9051 141.906 41.4392C141.906 40.9729 141.717 40.551 141.412 40.2458Z" fill="#24B787"/>
</g>
<defs>
<clipPath id="clip0_567_17120">
<rect width="48" height="48" fill="white" transform="translate(101.5 9)"/>
</clipPath>
</defs>
</svg>
