<svg width="15" height="13" viewBox="0 0 15 13" fill="none" xmlns="http://www.w3.org/2000/svg">
<path d="M9.05185 2.1666C9.74541 2.60146 10.2317 3.33733 10.3203 4.1915C10.6031 4.32366 10.9171 4.39966 11.2499 4.39966C12.465 4.39966 13.4498 3.41483 13.4498 2.19993C13.4498 0.984837 12.465 0 11.2499 0C10.0464 0.000374392 9.0702 0.967615 9.05185 2.1666ZM7.61063 6.67091C8.82572 6.67091 9.81056 5.68589 9.81056 4.47098C9.81056 3.25608 8.82553 2.27125 7.61063 2.27125C6.39573 2.27125 5.41033 3.25627 5.41033 4.47117C5.41033 5.68607 6.39573 6.67091 7.61063 6.67091ZM8.5438 6.82085H6.67709C5.12392 6.82085 3.86035 8.08461 3.86035 9.63778V11.9206L3.86615 11.9564L4.0234 12.0056C5.50562 12.4687 6.79334 12.6232 7.85324 12.6232C9.92344 12.6232 11.1234 12.0329 11.1973 11.9953L11.3443 11.921H11.36V9.63778C11.3605 8.08461 10.097 6.82085 8.5438 6.82085ZM12.1835 4.54979H10.3311C10.3111 5.2909 9.99476 5.95826 9.49438 6.43823C10.875 6.84875 11.8851 8.12898 11.8851 9.64115V10.3446C13.714 10.2776 14.7679 9.75927 14.8373 9.72445L14.9843 9.64994H15V7.36634C15 5.81337 13.7364 4.54979 12.1835 4.54979ZM3.75047 4.40004C4.18083 4.40004 4.58124 4.27443 4.92044 4.06046C5.02827 3.35717 5.40528 2.74261 5.94384 2.32404C5.94609 2.28285 5.95002 2.24204 5.95002 2.20049C5.95002 0.985399 4.96499 0.000561547 3.75047 0.000561547C2.53519 0.000561547 1.55054 0.985399 1.55054 2.20049C1.55054 3.41501 2.53519 4.40004 3.75047 4.40004ZM5.72613 6.43823C5.22819 5.96069 4.91295 5.29689 4.88993 4.56028C4.82123 4.55522 4.75328 4.54979 4.68326 4.54979H2.81674C1.26357 4.54979 0 5.81337 0 7.36634V9.64957L0.00580307 9.68476L0.163048 9.73437C1.35212 10.1056 2.41333 10.2767 3.33508 10.3306V9.64115C3.33545 8.12898 4.34519 6.84912 5.72613 6.43823Z" fill="#AAAAAA"/>
</svg>
