<svg width="32" height="43" viewBox="0 0 32 43" fill="none" xmlns="http://www.w3.org/2000/svg">
<path fill-rule="evenodd" clip-rule="evenodd" d="M14.2888 14.4467H17.0035C18.0585 14.4467 19.0204 14.8591 19.7353 15.5296C21.0119 15.7409 22.5219 16.0366 24.4625 16.4157C25.4604 16.6112 26.4158 16.2353 26.4158 15.0971V11.7529C26.4158 11.2283 26.0148 10.787 25.4913 10.754C22.0995 10.5385 18.8726 10.4204 15.6461 10.4204C12.4144 10.42 9.18235 10.5385 5.8013 10.754C5.27775 10.7874 4.8768 11.2283 4.8768 11.7532V15.0971C4.8768 16.0557 5.7059 16.6347 6.62217 16.4563C8.26255 16.1348 9.90831 15.8024 11.5573 15.5295C12.2718 14.8591 13.2341 14.4467 14.2888 14.4467ZM28.4821 37.4706L31.2922 43.0001H28.8271L26.2866 37.8396L28.4821 37.4706ZM2.46494 43.0001H0L2.8118 37.468L5.00564 37.8396L2.46494 43.0001ZM18.8026 6.46202L19.4738 3.04419H20.4919L19.8065 6.53408C21.5637 6.67937 23.1442 6.91369 24.4467 7.21385C27.1224 7.83029 28.7467 8.86263 28.7467 10.1635V22.3278C29.3319 23.0234 29.7155 23.9212 29.7155 24.9008C29.7155 25.8728 29.3334 26.7671 28.7477 27.465V29.0108C28.7477 29.5465 28.3264 29.9835 27.7973 30.0097L15.7281 31.0071C15.6668 31.0123 15.606 31.0117 15.5467 31.0058L3.46368 30.0072C2.94113 29.9642 2.54573 29.5263 2.54607 29.0108L2.5454 27.4741C1.9602 26.7783 1.57689 25.8806 1.57689 24.901C1.57689 23.9262 1.96137 23.031 2.54607 22.3356L2.54641 10.1637C2.54641 8.86296 4.16999 7.83046 6.8454 7.21401C8.14783 6.91419 9.72875 6.67954 11.4859 6.53424L10.8006 3.04436H11.8186L12.4902 6.46219C14.5851 6.33436 16.7075 6.33403 18.8026 6.46202ZM25.7145 22.9006C26.8194 22.9006 27.7147 23.7962 27.7147 24.9008C27.7147 26.0054 26.8194 26.901 25.7145 26.901C24.6099 26.901 23.7143 26.0054 23.7143 24.9008C23.7143 23.7962 24.6099 22.9006 25.7145 22.9006ZM5.57774 22.9006C6.6823 22.9006 7.57791 23.7962 7.57791 24.9008C7.57791 26.0054 6.6823 26.901 5.57774 26.901C4.47318 26.901 3.57723 26.0054 3.57723 24.9008C3.57723 23.7962 4.47301 22.9006 5.57774 22.9006ZM14.2888 16.4469H17.0035C18.1022 16.4469 19.0008 17.3459 19.0008 18.4442C19.0008 19.5429 18.1022 20.4419 17.0035 20.4419H14.2888C13.1904 20.4419 12.2914 19.5433 12.2914 18.4446C12.2914 17.3459 13.1901 16.4469 14.2888 16.4469Z" fill="#3678A3"/>
<path fill-rule="evenodd" clip-rule="evenodd" d="M7.63686 1.70035C6.99152 1.70035 6.40397 1.96507 5.97783 2.39154C5.1872 3.18183 3.98522 1.97985 4.77551 1.18922C5.50903 0.455699 6.52222 0 7.63686 0H23.6552C24.7263 0 25.7597 0.432352 26.5165 1.18922C27.3072 1.97985 26.1049 3.18183 25.3146 2.39154C24.8694 1.94642 24.2851 1.70035 23.6552 1.70035C18.3161 1.70035 12.9764 1.70035 7.63686 1.70035ZM3.63315 32.0184L15.6459 33.0085L27.6953 32.0152C28.2753 31.9676 28.7767 32.4287 28.7767 33.0116L28.7774 34.5611C28.7777 35.0826 28.3781 35.5108 27.8687 35.5573L15.4597 37.5415L3.35483 35.5455C2.86503 35.4658 2.517 35.042 2.51734 34.5611L2.51465 33.0116C2.51448 32.4128 3.03754 31.9475 3.63315 32.0184Z" fill="#3678A3"/>
</svg>
