<svg width="13" height="18" viewBox="0 0 13 18" fill="none" xmlns="http://www.w3.org/2000/svg">
<g opacity="0.5">
<path d="M9.20833 1.08333H8.03183C7.80867 0.452833 7.20633 0 6.5 0C5.79367 0 5.19133 0.452833 4.96708 1.08333H3.79167C3.49267 1.08333 3.25 1.326 3.25 1.625V3.79167C3.25 4.09067 3.49267 4.33333 3.79167 4.33333H9.20833C9.50733 4.33333 9.75 4.09067 9.75 3.79167V1.625C9.75 1.326 9.50733 1.08333 9.20833 1.08333Z" fill="#838384"/>
<path d="M11.9167 2.1665H10.8333V3.7915C10.8333 4.68742 10.1042 5.4165 9.20833 5.4165H3.79167C2.89575 5.4165 2.16667 4.68742 2.16667 3.7915V2.1665H1.08333C0.486417 2.1665 0 2.65292 0 3.24984V16.2498C0 16.8576 0.475583 17.3332 1.08333 17.3332H11.9167C12.5244 17.3332 13 16.8576 13 16.2498V3.24984C13 2.64209 12.5244 2.1665 11.9167 2.1665ZM6.34183 11.7583L4.17517 13.925C4.069 14.0301 3.93033 14.0832 3.79167 14.0832C3.653 14.0832 3.51433 14.0301 3.40817 13.925L2.32483 12.8417C2.11358 12.6304 2.11358 12.287 2.32483 12.0758C2.53608 11.8645 2.8795 11.8645 3.09075 12.0758L3.79167 12.7756L5.57483 10.9924C5.78608 10.7812 6.1295 10.7812 6.34075 10.9924C6.552 11.2037 6.55308 11.546 6.34183 11.7583ZM6.34183 7.425L4.17517 9.59167C4.069 9.69675 3.93033 9.74984 3.79167 9.74984C3.653 9.74984 3.51433 9.69675 3.40817 9.59167L2.32483 8.50834C2.11358 8.29709 2.11358 7.95367 2.32483 7.74242C2.53608 7.53117 2.8795 7.53117 3.09075 7.74242L3.79167 8.44225L5.57483 6.65909C5.78608 6.44784 6.1295 6.44784 6.34075 6.65909C6.552 6.87034 6.55308 7.21267 6.34183 7.425ZM10.2917 12.9998H8.125C7.826 12.9998 7.58333 12.7572 7.58333 12.4582C7.58333 12.1592 7.826 11.9165 8.125 11.9165H10.2917C10.5907 11.9165 10.8333 12.1592 10.8333 12.4582C10.8333 12.7572 10.5907 12.9998 10.2917 12.9998ZM10.2917 8.6665H8.125C7.826 8.6665 7.58333 8.42384 7.58333 8.12484C7.58333 7.82584 7.826 7.58317 8.125 7.58317H10.2917C10.5907 7.58317 10.8333 7.82584 10.8333 8.12484C10.8333 8.42384 10.5907 8.6665 10.2917 8.6665Z" fill="#2D2F38"/>
</g>
</svg>
