<svg width="24" height="24" viewBox="0 0 24 24" fill="none" xmlns="http://www.w3.org/2000/svg">
<path d="M17.0838 21.4848L17.0838 21.4848L17.0697 21.4824L17.0696 21.4824L14.9643 21.1315L14.9643 21.1315L14.9445 21.1282L14.9445 21.1282L14.9434 21.128C13.7639 20.9315 12.8508 20.7793 12.1453 20.5693C11.4277 20.3556 10.8894 20.0725 10.482 19.5917C10.0747 19.1108 9.88394 18.5332 9.79118 17.7903C9.69999 17.0599 9.7 16.1343 9.7 14.9385V14.9172V9.08276V9.0615C9.7 7.86574 9.69999 6.94008 9.79118 6.20974C9.88394 5.46676 10.0747 4.88923 10.482 4.40834C10.8894 3.92746 11.4277 3.64438 12.1453 3.43074C12.8508 3.22073 13.7638 3.06855 14.9433 2.87198L14.9643 2.86848L16.8886 2.54777L16.8995 2.54595C17.608 2.42787 18.1542 2.33683 18.5949 2.29254C19.0396 2.24785 19.4006 2.24785 19.7352 2.32433C20.7807 2.56326 21.6449 3.29531 22.0524 4.28726C22.1829 4.60479 22.2422 4.96082 22.2712 5.40685C22.3 5.84889 22.3 6.40262 22.3 7.12089V7.13193V17.066V17.0756C22.3 17.704 22.3 18.1885 22.2779 18.5762C22.2556 18.9674 22.21 19.2808 22.1096 19.5633C21.7126 20.681 20.7462 21.4996 19.5784 21.7075C19.2833 21.7601 18.9666 21.7535 18.5771 21.7112C18.191 21.6693 17.7131 21.5897 17.0932 21.4863L17.0838 21.4848Z" fill="#838384" stroke="#838384" stroke-width="0.6"/>
<path d="M2 12L1.53148 11.6252L1.23163 12L1.53148 12.3748L2 12ZM11 12.6C11.3314 12.6 11.6 12.3314 11.6 12C11.6 11.6686 11.3314 11.4 11 11.4V12.6ZM5.53148 6.62518L1.53148 11.6252L2.46852 12.3748L6.46852 7.37482L5.53148 6.62518ZM1.53148 12.3748L5.53148 17.3748L6.46852 16.6252L2.46852 11.6252L1.53148 12.3748ZM2 12.6H11V11.4H2V12.6Z" fill="#595A5A"/>
<path d="M10 8.13193V7.38851C10 5.77017 10 4.961 10.474 4.4015C10.9479 3.84201 11.7461 3.70899 13.3424 3.44293L15.0136 3.1644C18.2567 2.62388 19.8782 2.35363 20.9391 3.25232C22 4.15102 22 5.79493 22 9.08276V14.9172C22 18.2051 22 19.849 20.9391 20.7477C19.8782 21.6464 18.2567 21.3761 15.0136 20.8356L13.3424 20.5571C11.7461 20.291 10.9479 20.158 10.474 19.5985C10 19.039 10 18.2298 10 16.6115V16.066" stroke="#595A5A" stroke-width="1.2"/>
</svg>
