<svg width="16" height="9" viewBox="0 0 16 9" fill="none" xmlns="http://www.w3.org/2000/svg">
<path fill-rule="evenodd" clip-rule="evenodd" d="M12.1151 3.08792C11.909 2.72463 11.6814 2.39158 11.5344 2.27121C11.5259 2.26458 11.5178 2.25746 11.51 2.25015C11.2984 2.13197 11.107 2.05616 10.9487 2.04134C10.3983 1.99003 9.83004 1.96379 9.27682 1.96535L9.14645 3.85532C9.78536 3.81751 10.4223 3.7722 11.0188 3.72983C11.5078 3.69502 11.9692 3.66227 12.3948 3.63665C12.3199 3.46772 12.222 3.27641 12.1151 3.08792ZM15.7985 6.25434C15.9031 6.30884 15.9803 6.41189 15.9968 6.53764V6.85019C16.0234 7.0548 15.8791 7.24236 15.6745 7.26911L15.0247 7.35585C15.0277 7.31748 15.0297 7.27885 15.0307 7.24017V7.23929V7.23848V7.23811V7.23773V7.23692L15.0308 7.23611V7.23554V7.23529L15.0309 7.23442V7.23361V7.23286V7.23279V7.23192V7.23117L15.0309 7.23029V7.23017V7.22948L15.031 7.22861V7.22779V7.22748V7.22698V7.22617V7.22529V7.22479V7.22448L15.0311 7.22367V7.22279V7.22211V7.22204L15.0311 7.22117V7.22029V7.21948V7.21942V7.21867V7.21786V7.21704V7.21673V7.21617L15.0312 7.21454L15.0312 7.21411V7.21373V7.21292V7.21211V7.21055V7.20967V7.2088V7.20798V7.20717V7.20636V7.20605V7.20548V7.20467V7.20386L15.0313 7.20342V7.20305V7.20217V7.20136L15.0314 7.20067V7.20048V7.19967V7.19886V7.19805V7.19717V7.19642V7.19555V7.1953V7.19467V7.19386V7.19398V7.19355V7.19311V7.1923V7.19148V7.19086V7.19067V7.18986V7.18898V7.18817L15.0312 7.16536V7.16173L15.0311 7.15955L15.0307 7.13649L15.0307 7.13449C15.0305 7.12649 15.0302 7.11849 15.0299 7.11042L15.0297 7.10711L15.0287 7.08368L15.0286 7.08043L15.0274 7.05986L15.0272 7.05624L15.027 7.0528L15.0256 7.03143L15.0254 7.03005L15.0253 7.02868L15.0236 7.00774L15.0234 7.00387L15.0232 7.00318L15.0229 6.9993L15.0213 6.98199L15.0209 6.97774L15.0207 6.97493L15.0184 6.95337L15.018 6.95018L15.0156 6.92968L15.0146 6.92131L15.0142 6.91868L15.0124 6.90462L15.0122 6.90306L15.0111 6.8955L15.0086 6.87744L15.007 6.86725L15.0052 6.85519L15.0031 6.84244L15.0002 6.82469L14.9997 6.82244L14.9996 6.82113L14.9959 6.80138L14.9951 6.79675L14.9944 6.79344L14.9918 6.77956L14.9913 6.77713L14.9891 6.76613L14.989 6.76569L14.9862 6.752L14.9859 6.7505L14.9837 6.74032L14.9832 6.73825L14.9802 6.7245L14.9776 6.71313L14.9771 6.71082L14.9739 6.69707L14.972 6.68888L14.9692 6.67738L14.9646 6.65907L14.9632 6.65395L14.9603 6.64257L14.9566 6.62907L14.9529 6.61551L14.949 6.60201L14.9483 6.59957L14.9451 6.58857L14.9411 6.57514L14.9372 6.56232L14.9369 6.5617L14.9328 6.54833L14.9289 6.5362L14.9277 6.53258L14.9204 6.51045L14.9192 6.50677L14.911 6.48295L14.9101 6.4807L14.9059 6.46883L14.9011 6.45564L14.9006 6.45427L14.8962 6.44252L14.8914 6.42946L14.8863 6.41639L14.8812 6.40346L14.8764 6.39152L14.876 6.3904L14.8707 6.37746C14.8654 6.36465 14.8599 6.35183 14.8544 6.33909L14.8541 6.33865L14.8439 6.31546C14.7393 6.08328 14.5928 5.86967 14.4086 5.68549C14.0092 5.28613 13.471 5.06308 12.9061 5.06308C12.3412 5.06308 11.803 5.28613 11.4036 5.68549C11.0042 6.08491 10.7812 6.62313 10.7812 7.18805C10.7812 7.27211 10.7862 7.35554 10.7958 7.43803H5.20419C5.21394 7.35554 5.21888 7.27211 5.21888 7.18805C5.21888 6.62313 4.99583 6.08491 4.59647 5.68549C4.19711 5.28613 3.65889 5.06308 3.09398 5.06308C2.52906 5.06308 1.99084 5.28613 1.59148 5.68549C1.36174 5.91529 1.19038 6.19109 1.08619 6.49133L1.083 6.50064L1.07744 6.51714L1.07638 6.52033L1.07563 6.52258L1.07219 6.53308L1.07069 6.53776L1.06657 6.55083L1.06557 6.55401L1.06232 6.56458L1.06207 6.56551L1.05932 6.57464L1.05457 6.5907L1.05244 6.59807L1.04726 6.61645L1.04513 6.6242L1.04407 6.62801L1.04119 6.6387L1.04107 6.63926L1.03844 6.6492V6.64938L1.03569 6.66001L1.03319 6.66976L1.03294 6.6707L1.03238 6.67288L1.02788 6.69138L1.0262 6.69857L1.02213 6.716L1.02032 6.724L1.01632 6.74238L1.01557 6.74569L1.01551 6.746L1.01495 6.74863L1.01095 6.76819L1.00932 6.77632L1.00576 6.79481L1.00538 6.79675L1.00476 6.80031L1.00082 6.82206L1.00076 6.8225V6.82269L0.996946 6.84512L0.995759 6.85269L0.993072 6.87L0.991634 6.87981L0.989072 6.89743L0.988947 6.89868L0.988759 6.89981L0.988322 6.90318L0.985759 6.92287L0.985072 6.92856L0.98251 6.95056L0.982385 6.95187L0.982197 6.95393L0.979822 6.97606L0.979635 6.97787L0.979572 6.97906L0.97751 7.00118L0.97701 7.00687L0.975197 7.02955L0.975135 7.03018L0.975072 7.03155L0.973573 7.0538L0.973385 7.0563L0.973323 7.05755L0.97201 7.08111L0.971885 7.08349C0.971448 7.09199 0.971073 7.10042 0.97076 7.10892L0.970698 7.10968C0.970448 7.11711 0.970198 7.12455 0.97001 7.13205L0.969948 7.1353V7.13761L0.96951 7.15936V7.1618V7.16573L0.969385 7.18823V7.19217V7.1938V7.19605V7.19948V7.19998V7.20392V7.20523V7.20786L0.969448 7.21086V7.21186V7.2158V7.21661V7.21973V7.22229V7.22367L0.96951 7.22761V7.22792L0.969573 7.23154V7.23361L0.969635 7.23542L0.969698 7.23923V7.23942L0.96976 7.24336V7.24486L0.969823 7.24723L0.969885 7.25061V7.25117L0.97001 7.25511V7.25623L0.970073 7.25904L0.970135 7.26186V7.26298L0.97026 7.26692V7.26754L0.970448 7.27317L0.97051 7.27479L0.970823 7.2826L0.970885 7.28442L0.97101 7.28648L0.971385 7.29417V7.29429L0.971448 7.29567L0.971573 7.29817L0.971698 7.30135V7.3021L0.971885 7.30604L0.972823 7.32167L0.972948 7.32385L0.973073 7.32554L0.973323 7.32948C0.975322 7.35941 0.977947 7.38922 0.981135 7.41897V7.4191L0.981572 7.42291L0.98176 7.42466L0.982385 7.43022L0.982447 7.4306L0.983322 7.43835C0.987572 7.47466 0.992822 7.51066 0.998946 7.54653L0.325415 7.45666C0.120737 7.42991 -0.0235068 7.24236 0.00317944 7.03774V6.72526C0.0207411 6.59057 0.107987 6.48202 0.223919 6.43114L0.278667 5.47387C0.306416 5.47844 0.335414 5.47844 0.364663 5.47306L1.00188 5.35588C1.13725 5.33107 1.22687 5.2012 1.20206 5.06583C1.17725 4.93046 1.04738 4.84084 0.912013 4.86571L0.307103 4.9769L0.31379 4.85922C0.32104 4.72735 0.395849 4.61516 0.502657 4.55435C0.920512 4.28268 1.47899 4.04225 2.0849 3.84995C2.69818 3.65533 3.3674 3.50646 3.99181 3.42216C4.46966 2.98986 5.11538 2.45408 5.74392 2.04147C6.25783 1.70417 6.77099 1.44406 7.19904 1.37287L7.21722 1.36994C7.21735 1.35375 7.21904 1.33738 7.22247 1.32094L7.46221 0.199241C7.48677 0.0814338 7.59064 0.000499872 7.70633 0.000624866V0H10.9547C11.0912 0 11.202 0.109245 11.2047 0.245051L11.2839 1.34869C11.7041 1.4665 12.1777 1.75804 12.6515 2.1239C13.1595 2.51632 13.6757 2.99674 14.1187 3.42934C14.7059 3.50734 14.9187 3.5719 15.2628 3.67646C15.3012 3.68814 15.3425 3.70064 15.4797 3.74083C15.6466 3.78983 15.7534 3.94501 15.7482 4.11106L15.7538 4.34999C15.7401 4.34761 15.726 4.34643 15.7116 4.34643H15.0745C14.9364 4.34643 14.8245 4.45836 14.8245 4.59641C14.8245 4.73447 14.9364 4.8464 15.0745 4.8464H15.7116C15.73 4.8464 15.7478 4.84434 15.765 4.84065L15.7985 6.25434ZM8.77584 1.97472C8.25843 1.99285 7.76345 2.03753 7.32003 2.11128C7.01005 2.16278 6.59281 2.38102 6.1549 2.6685C5.67404 2.98411 5.18119 3.37741 4.77015 3.73352C4.83602 3.75658 4.90627 3.77795 4.98064 3.79758C5.25106 3.86882 5.5678 3.91376 5.91822 3.92838C6.71562 3.96151 7.67033 3.93438 8.64428 3.88345L8.77584 1.97472ZM10.779 1.27675L10.7233 0.500039H7.90919L7.73758 1.29932C8.13462 1.25544 8.55866 1.22982 8.99489 1.22132C9.5803 1.20988 10.1872 1.22944 10.779 1.27675ZM5.2505 4.83903H5.87547V5.464H5.2505V4.83903ZM5.87547 5.464H6.50044V6.08897H5.87547V5.464ZM6.50044 4.83903H7.12542V5.464H6.50044V4.83903ZM7.12542 5.464H7.75039V6.08897H7.12542V5.464ZM7.75039 4.83903H8.37536V5.464H7.75039V4.83903ZM8.37536 5.464H9.00033V6.08897H8.37536V5.464ZM9.00033 4.83903H9.6253V5.464H9.00033V4.83903ZM9.6253 5.464H10.2503V6.08897H9.6253V5.464ZM10.2503 4.83903H10.8752V5.464H10.2503V4.83903Z" fill="#FF8311"/>
<path d="M12.9064 5.62572C13.3377 5.62572 13.7284 5.80059 14.0112 6.08332C14.294 6.36606 14.4688 6.75667 14.4688 7.18815C14.4688 7.6195 14.2939 8.01011 14.0112 8.29291C13.7284 8.57558 13.3378 8.75051 12.9064 8.75051C12.475 8.75051 12.0844 8.57558 11.8016 8.29291C11.5189 8.01017 11.344 7.61957 11.344 7.18815C11.344 6.75673 11.5189 6.36612 11.8016 6.08332C12.0844 5.80059 12.475 5.62572 12.9064 5.62572ZM3.09434 5.62572C3.52576 5.62572 3.91637 5.80059 4.1991 6.08332C4.48184 6.36606 4.65677 6.75667 4.65677 7.18815C4.65677 7.6195 4.48184 8.01011 4.1991 8.29291C3.91637 8.57558 3.52576 8.75051 3.09434 8.75051C2.66292 8.75051 2.27232 8.57558 1.98958 8.29291C1.70684 8.01017 1.53191 7.61957 1.53191 7.18815C1.53191 6.75673 1.70678 6.36612 1.98958 6.08332C2.27238 5.80052 2.66292 5.62572 3.09434 5.62572ZM3.49214 6.79035C3.39039 6.68861 3.24971 6.62567 3.09434 6.62567C2.93897 6.62567 2.79829 6.68861 2.69655 6.79035C2.5948 6.8921 2.53187 7.03278 2.53187 7.18815C2.53187 7.34345 2.5948 7.48413 2.69655 7.58588C2.79829 7.68769 2.93897 7.75062 3.09434 7.75062C3.24971 7.75062 3.39033 7.68769 3.49214 7.58588C3.59388 7.48413 3.65682 7.34345 3.65682 7.18815C3.65682 7.03272 3.59388 6.8921 3.49214 6.79035ZM13.3041 6.79035C13.2024 6.68861 13.0618 6.62567 12.9064 6.62567C12.751 6.62567 12.6104 6.68861 12.5086 6.79035C12.4069 6.8921 12.3439 7.03278 12.3439 7.18815C12.3439 7.34345 12.4069 7.48413 12.5086 7.58588C12.6104 7.68769 12.751 7.75062 12.9064 7.75062C13.0618 7.75062 13.2024 7.68769 13.3041 7.58588C13.4059 7.48413 13.4689 7.34345 13.4689 7.18815C13.4689 7.03272 13.4059 6.8921 13.3041 6.79035Z" fill="#FF8311"/>
</svg>
