<svg width="18" height="14" viewBox="0 0 18 14" fill="none" xmlns="http://www.w3.org/2000/svg">
<path fill-rule="evenodd" clip-rule="evenodd" d="M0.87868 0.87868C0 1.75736 0 3.17157 0 6V8C0 10.8284 0 12.2426 0.87868 13.1213C1.75736 14 3.17157 14 6 14H12C14.8284 14 16.2426 14 17.1213 13.1213C18 12.2426 18 10.8284 18 8V6C18 3.17157 18 1.75736 17.1213 0.87868C16.2426 0 14.8284 0 12 0H6C3.17157 0 1.75736 0 0.87868 0.87868ZM3.5547 3.16795C3.09517 2.8616 2.4743 2.98577 2.16795 3.4453C1.8616 3.90483 1.98577 4.5257 2.4453 4.83205L7.8906 8.46225C8.5624 8.91012 9.4376 8.91012 10.1094 8.46225L15.5547 4.83205C16.0142 4.5257 16.1384 3.90483 15.8321 3.4453C15.5257 2.98577 14.9048 2.8616 14.4453 3.16795L9 6.79815L3.5547 3.16795Z" fill="#838384"/>
</svg>
