<svg width="23" height="15" viewBox="0 0 23 15" fill="none" xmlns="http://www.w3.org/2000/svg">
<path d="M19.8918 6.26494C20.5653 5.8035 21.0113 5.03591 21.0113 4.17071C21.0113 2.75533 19.8372 1.6106 18.3854 1.6106C16.9337 1.6106 15.7596 2.75533 15.7596 4.17071C15.7596 5.03591 16.201 5.8035 16.8791 6.26494C16.3011 6.46016 15.7732 6.76188 15.3273 7.15232C14.7129 6.64208 13.9893 6.25163 13.1975 6.02091C14.1577 5.45298 14.8039 4.41918 14.8039 3.24339C14.8039 1.45087 13.3158 0 11.4772 0C9.6387 0 8.15057 1.45531 8.15057 3.24339C8.15057 4.41918 8.79224 5.45298 9.75702 6.02091C8.97428 6.25163 8.2598 6.63764 7.64998 7.13901C7.204 6.75744 6.6852 6.46016 6.11634 6.26938C6.78987 5.80794 7.23585 5.04035 7.23585 4.17515C7.23585 2.75977 6.06173 1.61504 4.61001 1.61504C3.15829 1.61504 1.98417 2.75977 1.98417 4.17515C1.98417 5.04035 2.4256 5.80794 3.10368 6.26938C1.29699 6.87723 0 8.54996 0 10.5155V10.8084C0 10.8172 0.0091017 10.8261 0.0182034 10.8261H5.58389C5.55204 11.0701 5.53383 11.323 5.53383 11.5759V11.8777C5.53383 13.1821 6.61694 14.2381 7.95489 14.2381H15.0087C16.3467 14.2381 17.4298 13.1821 17.4298 11.8777V11.5759C17.4298 11.323 17.4116 11.0701 17.3797 10.8261H22.9818C22.9909 10.8261 23 10.8172 23 10.8084V10.5155C22.9909 8.54552 21.6985 6.8728 19.8918 6.26494ZM16.4877 4.16627C16.4877 3.14578 17.3387 2.31608 18.3854 2.31608C19.4321 2.31608 20.2831 3.14578 20.2831 4.16627C20.2831 5.17346 19.4503 5.99429 18.4218 6.01647C18.4082 6.01647 18.3991 6.01647 18.3854 6.01647C18.3718 6.01647 18.3627 6.01647 18.349 6.01647C17.316 5.99872 16.4877 5.17789 16.4877 4.16627ZM8.86961 3.24339C8.86961 1.84576 10.0346 0.709908 11.4681 0.709908C12.9017 0.709908 14.0667 1.84576 14.0667 3.24339C14.0667 4.59222 12.979 5.69701 11.6183 5.77244C11.5683 5.77244 11.5182 5.77244 11.4681 5.77244C11.4181 5.77244 11.368 5.77244 11.318 5.77244C9.95726 5.69701 8.86961 4.59222 8.86961 3.24339ZM2.69865 4.16627C2.69865 3.14578 3.54966 2.31608 4.59636 2.31608C5.64306 2.31608 6.49406 3.14578 6.49406 4.16627C6.49406 5.17346 5.66126 5.99429 4.63277 6.01647C4.61911 6.01647 4.61001 6.01647 4.59636 6.01647C4.58271 6.01647 4.57361 6.01647 4.55995 6.01647C3.53146 5.99872 2.69865 5.17789 2.69865 4.16627ZM5.71132 10.1118H0.737238C0.942026 8.22162 2.58033 6.73969 4.56905 6.72638C4.57816 6.72638 4.58726 6.72638 4.59636 6.72638C4.60546 6.72638 4.61456 6.72638 4.62366 6.72638C5.57024 6.73082 6.4349 7.07246 7.10388 7.62708C6.44856 8.31924 5.96161 9.17113 5.71132 10.1118ZM16.6925 11.8777C16.6925 12.7872 15.9325 13.5282 14.9996 13.5282H7.94579C7.01286 13.5282 6.25287 12.7872 6.25287 11.8777V11.5759C6.25287 8.82061 8.51009 6.56665 11.318 6.48679C11.368 6.49122 11.4226 6.49122 11.4727 6.49122C11.5228 6.49122 11.5774 6.49122 11.6274 6.48679C14.4353 6.56665 16.6925 8.82061 16.6925 11.5759V11.8777ZM17.2341 10.1118C16.9838 9.17556 16.5059 8.33698 15.8552 7.64482C16.5287 7.0769 17.4025 6.73525 18.3581 6.72638C18.3672 6.72638 18.3763 6.72638 18.3854 6.72638C18.3945 6.72638 18.4036 6.72638 18.4127 6.72638C20.4015 6.73969 22.0398 8.22162 22.2446 10.1118H17.2341Z" fill="#2D2F38"/>
</svg>
