<svg width="16" height="16" viewBox="0 0 16 16" fill="none" xmlns="http://www.w3.org/2000/svg">
<g clip-path="url(#clip0_169_10789)">
<path opacity="0.8" d="M15.9914 8.14944C15.9914 7.49394 15.9369 7.01559 15.8191 6.51953H8.15918V9.47816H12.6554C12.5648 10.2134 12.0753 11.3207 10.9875 12.0648L10.9722 12.1638L13.3941 13.9973L13.5619 14.0136C15.103 12.6229 15.9914 10.5766 15.9914 8.14944Z" fill="white"/>
<path opacity="0.8" d="M8.15939 15.9455C10.3622 15.9455 12.2114 15.2368 13.5621 14.0144L10.9877 12.0655C10.2987 12.535 9.37407 12.8628 8.15939 12.8628C6.00193 12.8628 4.17081 11.4721 3.51806 9.5498L3.42239 9.55774L0.904028 11.4623L0.871094 11.5518C2.2127 14.1561 4.96847 15.9455 8.15939 15.9455Z" fill="white"/>
<path opacity="0.8" d="M3.51818 9.54887C3.34594 9.05281 3.24627 8.52127 3.24627 7.97208C3.24627 7.42283 3.34594 6.89135 3.50911 6.39529L3.50455 6.28964L0.954628 4.35449L0.871199 4.39327C0.318256 5.474 0.000976562 6.68762 0.000976562 7.97208C0.000976562 9.25654 0.318256 10.4701 0.871199 11.5508L3.51818 9.54887Z" fill="white"/>
<path opacity="0.8" d="M8.15942 3.08269C9.69139 3.08269 10.7248 3.72934 11.314 4.26974L13.6166 2.07285C12.2025 0.788397 10.3622 0 8.15942 0C4.96849 0 2.21271 1.78937 0.871094 4.39371L3.50902 6.39573C4.17082 4.47347 6.00195 3.08269 8.15942 3.08269Z" fill="white"/>
</g>
<defs>
<clipPath id="clip0_169_10789">
<rect width="16" height="16" fill="white"/>
</clipPath>
</defs>
</svg>
