<svg width="149" height="149" viewBox="0 0 149 149" fill="none" xmlns="http://www.w3.org/2000/svg">
<path opacity="0.2" d="M74.5 149C115.645 149 149 115.645 149 74.5C149 33.3548 115.645 0 74.5 0C33.3548 0 0 33.3548 0 74.5C0 115.645 33.3548 149 74.5 149Z" fill="url(#paint0_linear_169_11197)"/>
<path opacity="0.2" d="M17.0884 74.2683C19.3464 74.2683 21.1768 72.6412 21.1768 70.6341C21.1768 68.627 19.3464 67 17.0884 67C14.8304 67 13 68.627 13 70.6341C13 72.6412 14.8304 74.2683 17.0884 74.2683Z" fill="url(#paint1_linear_169_11197)"/>
<path opacity="0.2" d="M119.451 35.9024C122.462 35.9024 124.902 33.4618 124.902 30.4512C124.902 27.4406 122.462 25 119.451 25C116.441 25 114 27.4406 114 30.4512C114 33.4618 116.441 35.9024 119.451 35.9024Z" fill="url(#paint2_linear_169_11197)"/>
<path opacity="0.2" d="M45.5427 121.085C48.0515 121.085 50.0854 119.052 50.0854 116.543C50.0854 114.034 48.0515 112 45.5427 112C43.0338 112 41 114.034 41 116.543C41 119.052 43.0338 121.085 45.5427 121.085Z" fill="url(#paint3_linear_169_11197)"/>
<path opacity="0.2" d="M91.7622 121.744C93.2675 121.744 94.4878 120.524 94.4878 119.019C94.4878 117.513 93.2675 116.293 91.7622 116.293C90.2569 116.293 89.0366 117.513 89.0366 119.019C89.0366 120.524 90.2569 121.744 91.7622 121.744Z" fill="url(#paint4_linear_169_11197)"/>
<path d="M123.423 58.1697L123.486 57.878C123.57 57.5285 123.583 57.1661 123.526 56.8114C123.468 56.4567 123.34 56.1168 123.15 55.8112C122.96 55.5055 122.711 55.2401 122.417 55.03C122.123 54.82 121.791 54.6696 121.438 54.5872L35.9204 34.5996C35.5675 34.5158 35.2013 34.5019 34.8429 34.5587C34.4845 34.6155 34.1409 34.7419 33.8319 34.9306C33.5228 35.1194 33.2543 35.3667 33.0418 35.6586C32.8293 35.9505 32.6769 36.2811 32.5934 36.6315L32.5199 36.9474L21.0346 85.3901L20.9709 85.6866C20.8871 86.0361 20.8737 86.3986 20.9314 86.7532C20.989 87.1079 21.1166 87.4478 21.3069 87.7534C21.4971 88.0591 21.7463 88.3245 22.0401 88.5346C22.3339 88.7446 22.6665 88.8951 23.019 88.9774L23.3081 89.0454H23.3375L108.208 108.887L108.507 108.95C108.86 109.033 109.225 109.047 109.582 108.99C109.94 108.932 110.283 108.806 110.591 108.617C110.899 108.428 111.166 108.181 111.378 107.89C111.59 107.598 111.742 107.268 111.825 106.919L111.898 106.603L123.403 58.1599L123.423 58.1697Z" fill="#3F943E"/>
<path d="M125.303 57.8681L125.234 58.1548C125.337 57.716 125.339 57.2601 125.24 56.8204C125.141 56.3807 124.943 55.9684 124.661 55.6136L73.6211 71.7744L35.2954 34.8902C34.8775 35.088 34.5097 35.3752 34.2192 35.7308C33.9286 36.0864 33.7225 36.5014 33.616 36.9455L33.6901 36.6297C33.8612 35.923 34.3107 35.312 34.9396 34.9312C35.5685 34.5503 36.3254 34.4307 37.044 34.5986L123.234 54.5786C123.589 54.6604 123.925 54.8104 124.222 55.0201C124.519 55.2298 124.77 55.4951 124.963 55.8007C125.155 56.1063 125.284 56.4462 125.342 56.801C125.401 57.1558 125.388 57.5184 125.303 57.8681Z" fill="#3F943E"/>
<path d="M124.731 56.2428C125.011 56.5995 125.207 57.0139 125.306 57.4559C125.404 57.8978 125.402 58.3561 125.3 58.7971C125.3 58.7971 125.3 58.7971 125.3 58.8264L113.788 107.499L113.715 107.817C113.631 108.168 113.479 108.5 113.266 108.793C113.054 109.086 112.786 109.334 112.477 109.524C112.168 109.713 111.825 109.84 111.467 109.898C111.109 109.955 110.743 109.942 110.391 109.858L110.096 109.795C110.092 109.793 110.088 109.792 110.084 109.792C110.08 109.792 110.076 109.793 110.072 109.795L25.1558 89.8489L24.8421 89.7756C24.4889 89.6934 24.1555 89.5426 23.861 89.3318C23.5665 89.121 23.3167 88.8544 23.1258 88.5473C22.935 88.2401 22.8069 87.8984 22.7489 87.5418C22.6908 87.1852 22.7041 86.8207 22.7878 86.4692L22.8564 86.1713L34.3681 37.4985C34.4739 37.0522 34.6784 36.635 34.9668 36.2776C35.2553 35.9202 35.6202 35.6315 36.0351 35.4326" fill="#3F943E"/>
<path d="M73.5914 72.0643L23.3555 88.1277C23.0774 87.7735 22.8825 87.3622 22.7849 86.9236C22.6874 86.4851 22.6896 86.0305 22.7915 85.5929L34.2078 37.475C34.3127 37.0337 34.5156 36.6213 34.8016 36.268C35.0876 35.9146 35.4496 35.6292 35.861 35.4326L73.5914 72.0643Z" fill="url(#paint5_linear_169_11197)"/>
<path d="M125.299 57.9891C125.299 57.9891 125.299 57.9891 125.299 58.0186L113.679 106.957C113.572 107.405 113.366 107.823 113.075 108.181C112.783 108.539 112.415 108.827 111.996 109.025L73.5916 71.7534L124.725 55.4209C125.008 55.7795 125.206 56.1962 125.305 56.6406C125.404 57.0849 125.402 57.5457 125.299 57.9891Z" fill="url(#paint6_linear_169_11197)"/>
<path d="M73.5626 71.7744L22.7134 87.9657C23.1463 88.5264 23.7646 88.9191 24.4604 89.0753L109.693 108.941C110.384 109.105 111.111 109.026 111.75 108.717L73.5626 71.7744Z" fill="url(#paint7_linear_169_11197)"/>
<path d="M35.4329 34.9785L71.014 73.3004C71.5281 73.8474 72.2007 74.2312 72.9436 74.4014C73.6865 74.5716 74.4651 74.5204 75.1775 74.2545L124.469 55.7786" fill="url(#paint8_linear_169_11197)"/>
<path d="M73.5915 83.5855C80.1145 83.5855 85.4025 78.5009 85.4025 72.2288C85.4025 65.9566 80.1145 60.8721 73.5915 60.8721C67.0685 60.8721 61.7805 65.9566 61.7805 72.2288C61.7805 78.5009 67.0685 83.5855 73.5915 83.5855Z" fill="#C6E9C6"/>
<path d="M74.4999 83.5852C81.023 83.5852 86.3109 78.704 86.3109 72.6827C86.3109 66.6615 81.023 61.7803 74.4999 61.7803C67.9769 61.7803 62.689 66.6615 62.689 72.6827C62.689 78.704 67.9769 83.5852 74.4999 83.5852Z" fill="white"/>
<path d="M71.6753 82.406C69.6619 81.9369 67.8329 80.881 66.4197 79.3719C65.0066 77.8629 64.0729 75.9685 63.7367 73.9285C63.4006 71.8885 63.6771 69.7947 64.5313 67.9119C65.3855 66.0291 66.7789 64.4421 68.5353 63.3517C70.2918 62.2613 72.3321 61.7165 74.3983 61.7862C76.4644 61.856 78.4634 62.5371 80.1423 63.7435C81.8212 64.9499 83.1045 66.6273 83.8298 68.5633C84.5551 70.4994 84.6899 72.6071 84.2169 74.6198C83.5815 77.3129 81.9049 79.6443 79.5542 81.1037C77.2036 82.563 74.3704 83.0313 71.6753 82.406ZM76.3639 62.4002C74.4187 61.9442 72.382 62.0754 70.5114 62.7771C68.6408 63.4788 67.0202 64.7195 65.8547 66.3424C64.6892 67.9652 64.0311 69.8973 63.9636 71.8942C63.8962 73.8912 64.4223 75.8633 65.4756 77.5611C66.5289 79.259 68.062 80.6063 69.881 81.4327C71.7 82.2591 73.7232 82.5274 75.6947 82.2038C77.6662 81.8802 79.4975 80.9791 80.9569 79.6146C82.4164 78.25 83.4384 76.4833 83.8937 74.5378C84.4962 71.9302 84.0425 69.1902 82.6317 66.916C81.2209 64.6419 78.9676 63.0184 76.3639 62.4002Z" fill="#74B973"/>
<path fill-rule="evenodd" clip-rule="evenodd" d="M71.7449 77.2158C71.6164 77.2325 71.485 77.2279 71.3572 77.2016V77.2205C71.2024 77.1867 71.0574 77.1218 70.9325 77.0304C70.8076 76.9391 70.7057 76.8236 70.6342 76.6919L68.2563 72.3258C68.1921 72.2078 68.1537 72.0791 68.1431 71.9473C68.1326 71.8154 68.1501 71.6829 68.1948 71.5573C68.2395 71.4317 68.3104 71.3156 68.4035 71.2154C68.4966 71.1152 68.6101 71.0331 68.7375 70.9736C68.8649 70.9141 69.0037 70.8784 69.1459 70.8686C69.2882 70.8588 69.4311 70.8751 69.5666 70.9165C69.702 70.9579 69.8273 71.0237 69.9354 71.11C70.0434 71.1963 70.1321 71.3015 70.1963 71.4196L72.0486 74.8135L80.2201 69.2023C80.4446 69.0613 80.7134 69.0151 80.9702 69.0735C81.227 69.1319 81.4519 69.2903 81.5976 69.5154C81.7434 69.7406 81.7987 70.015 81.752 70.2812C81.7053 70.5474 81.5602 70.7846 81.3471 70.9432L72.431 77.0608C72.3166 77.1363 72.1886 77.1873 72.0546 77.2108C71.952 77.2288 71.8476 77.2304 71.7449 77.2158Z" fill="#74B973"/>
<path opacity="0.2" d="M44.5181 26.7931C47.5287 26.7931 49.9693 24.3525 49.9693 21.3418C49.9693 18.3312 47.5287 15.8906 44.5181 15.8906C41.5075 15.8906 39.0669 18.3312 39.0669 21.3418C39.0669 24.3525 41.5075 26.7931 44.5181 26.7931Z" fill="url(#paint9_linear_169_11197)"/>
<path opacity="0.2" d="M134.015 90.8536C136.273 90.8536 138.104 89.0232 138.104 86.7652C138.104 84.5072 136.273 82.6768 134.015 82.6768C131.757 82.6768 129.927 84.5072 129.927 86.7652C129.927 89.0232 131.757 90.8536 134.015 90.8536Z" fill="url(#paint10_linear_169_11197)"/>
<path opacity="0.2" d="M85.5427 37.0854C88.0515 37.0854 90.0854 35.0516 90.0854 32.5427C90.0854 30.0338 88.0515 28 85.5427 28C83.0338 28 81 30.0338 81 32.5427C81 35.0516 83.0338 37.0854 85.5427 37.0854Z" fill="url(#paint11_linear_169_11197)"/>
<path d="M123.677 87.397C116.846 87.787 110.428 85.1122 107.772 83.8223C107.384 83.6358 106.952 83.5569 106.523 83.5938C106.093 83.6308 105.682 83.7823 105.332 84.0323C102.933 85.7471 97.0676 89.4669 90.2418 90.2318C89.6198 90.3035 89.051 90.6151 88.6578 91.0994C88.2646 91.5837 88.0784 92.2022 88.1392 92.8216C88.7378 99.0261 91.9068 115.565 108.697 125.064C109.119 125.304 109.605 125.41 110.089 125.369C110.573 125.328 111.033 125.141 111.408 124.834C126.338 112.64 126.644 95.8363 126.172 89.5918C126.124 88.9756 125.837 88.402 125.371 87.9923C124.906 87.5827 124.298 87.3692 123.677 87.397Z" fill="#C27500"/>
<path d="M123.746 86.493C117.073 86.8779 110.808 84.2033 108.215 82.9185C107.837 82.7297 107.416 82.6491 106.997 82.6852C106.577 82.7213 106.175 82.8728 105.834 83.1235C103.492 84.8432 97.7668 88.5577 91.104 89.3275C90.4974 89.3993 89.9425 89.7099 89.5581 90.193C89.1736 90.676 88.99 91.2931 89.0467 91.9121C89.631 98.1212 92.7243 114.654 109.114 124.157C109.527 124.396 110.001 124.502 110.475 124.461C110.948 124.42 111.398 124.234 111.765 123.927C126.338 111.734 126.633 94.9017 126.176 88.6876C126.131 88.0719 125.852 87.4983 125.398 87.0886C124.944 86.6789 124.351 86.4652 123.746 86.493Z" fill="url(#paint12_linear_169_11197)"/>
<path d="M122.218 88.7196C116.36 89.0568 110.856 86.7362 108.584 85.6106C108.251 85.4471 107.88 85.3778 107.511 85.4101C107.142 85.4424 106.788 85.5751 106.488 85.794C104.432 87.2816 99.4056 90.5146 93.5722 91.1841C93.0394 91.2465 92.5521 91.5174 92.2154 91.9384C91.8787 92.3595 91.7195 92.897 91.7721 93.4353C92.2639 98.8303 94.9986 113.21 109.39 121.471C109.752 121.679 110.169 121.772 110.584 121.736C110.999 121.701 111.394 121.539 111.717 121.273C124.505 110.667 124.775 96.0336 124.372 90.6287C124.332 90.0898 124.084 89.5882 123.681 89.2314C123.278 88.8745 122.753 88.6908 122.218 88.7196Z" fill="url(#paint13_linear_169_11197)"/>
<path d="M109.024 110.842C114.042 110.842 118.11 106.774 118.11 101.756C118.11 96.7385 114.042 92.6709 109.024 92.6709C104.007 92.6709 99.939 96.7385 99.939 101.756C99.939 106.774 104.007 110.842 109.024 110.842Z" fill="#FFD18C"/>
<path d="M110.273 111.715C108.393 111.879 106.509 111.456 104.859 110.499C103.208 109.542 101.866 108.094 101.001 106.338C100.136 104.582 99.7875 102.597 99.9993 100.633C100.211 98.6699 100.974 96.8163 102.191 95.3067C103.408 93.7972 105.025 92.6995 106.838 92.1524C108.65 91.6053 110.577 91.6334 112.374 92.233C114.172 92.8326 115.759 93.9769 116.936 95.5213C118.112 97.0657 118.825 98.9408 118.985 100.91C119.196 103.552 118.396 106.175 116.763 108.2C115.129 110.226 112.795 111.49 110.273 111.715ZM108.762 93.1621C107.142 93.3104 105.6 93.9582 104.332 95.0239C103.063 96.0896 102.124 97.5253 101.633 99.1496C101.143 100.774 101.123 102.514 101.576 104.15C102.029 105.787 102.935 107.245 104.179 108.343C105.423 109.44 106.949 110.127 108.566 110.316C110.182 110.505 111.815 110.188 113.26 109.405C114.704 108.622 115.895 107.408 116.681 105.917C117.468 104.426 117.815 102.724 117.678 101.026C117.587 99.896 117.285 98.7956 116.787 97.7882C116.289 96.7807 115.607 95.8861 114.779 95.1555C113.95 94.4249 112.993 93.8727 111.96 93.5306C110.928 93.1886 109.841 93.0633 108.762 93.1621Z" fill="url(#paint14_linear_169_11197)"/>
<path fill-rule="evenodd" clip-rule="evenodd" d="M110.832 101.184C111.395 100.768 111.75 100.161 111.75 99.4842C111.75 98.2298 110.53 97.2129 109.024 97.2129C107.519 97.2129 106.299 98.2298 106.299 99.4842C106.299 100.419 106.976 101.221 107.943 101.57L108.443 106.171C108.481 106.473 108.668 106.75 108.964 106.943C109.26 107.136 109.641 107.229 110.023 107.202C110.404 107.171 110.755 107.023 110.999 106.789C111.243 106.556 111.362 106.256 111.329 105.954L110.832 101.184Z" fill="url(#paint15_linear_169_11197)"/>
<defs>
<linearGradient id="paint0_linear_169_11197" x1="74.5" y1="0" x2="74.5" y2="192" gradientUnits="userSpaceOnUse">
<stop stop-color="#74B973"/>
<stop offset="1" stop-color="#F3FBF2"/>
</linearGradient>
<linearGradient id="paint1_linear_169_11197" x1="17.0884" y1="67" x2="17.0884" y2="76.7398" gradientUnits="userSpaceOnUse">
<stop stop-color="#85C284"/>
<stop offset="1" stop-color="#85C284" stop-opacity="0"/>
</linearGradient>
<linearGradient id="paint2_linear_169_11197" x1="119.451" y1="25" x2="119.451" y2="39.6097" gradientUnits="userSpaceOnUse">
<stop stop-color="#85C284"/>
<stop offset="1" stop-color="#85C284" stop-opacity="0"/>
</linearGradient>
<linearGradient id="paint3_linear_169_11197" x1="45.5427" y1="112" x2="45.5427" y2="124.175" gradientUnits="userSpaceOnUse">
<stop stop-color="#85C284"/>
<stop offset="1" stop-color="#85C284" stop-opacity="0"/>
</linearGradient>
<linearGradient id="paint4_linear_169_11197" x1="91.7622" y1="116.293" x2="91.7622" y2="123.598" gradientUnits="userSpaceOnUse">
<stop stop-color="#85C284"/>
<stop offset="1" stop-color="#85C284" stop-opacity="0"/>
</linearGradient>
<linearGradient id="paint5_linear_169_11197" x1="48.1524" y1="35.4326" x2="48.1524" y2="88.1277" gradientUnits="userSpaceOnUse">
<stop stop-color="#8CCC8B"/>
<stop offset="1" stop-color="#74B973"/>
</linearGradient>
<linearGradient id="paint6_linear_169_11197" x1="99.4848" y1="55.4209" x2="99.4848" y2="109.025" gradientUnits="userSpaceOnUse">
<stop stop-color="#8CCC8B"/>
<stop offset="1" stop-color="#74B973"/>
</linearGradient>
<linearGradient id="paint7_linear_169_11197" x1="67.2317" y1="71.7744" x2="67.2317" y2="109.024" gradientUnits="userSpaceOnUse">
<stop stop-color="#74B973"/>
<stop offset="1" stop-color="#489647"/>
</linearGradient>
<linearGradient id="paint8_linear_169_11197" x1="79.9512" y1="34.9785" x2="71.4999" y2="81.9999" gradientUnits="userSpaceOnUse">
<stop stop-color="#B4EAB3"/>
<stop offset="1" stop-color="#8CCC8B"/>
</linearGradient>
<linearGradient id="paint9_linear_169_11197" x1="44.5181" y1="15.8906" x2="44.5181" y2="30.5004" gradientUnits="userSpaceOnUse">
<stop stop-color="#85C284"/>
<stop offset="1" stop-color="#85C284" stop-opacity="0"/>
</linearGradient>
<linearGradient id="paint10_linear_169_11197" x1="134.015" y1="82.6768" x2="134.015" y2="93.6341" gradientUnits="userSpaceOnUse">
<stop stop-color="#85C284"/>
<stop offset="1" stop-color="#85C284" stop-opacity="0"/>
</linearGradient>
<linearGradient id="paint11_linear_169_11197" x1="85.5427" y1="28" x2="85.5427" y2="40.1748" gradientUnits="userSpaceOnUse">
<stop stop-color="#85C284"/>
<stop offset="1" stop-color="#85C284" stop-opacity="0"/>
</linearGradient>
<linearGradient id="paint12_linear_169_11197" x1="107.662" y1="82.6768" x2="107.662" y2="124.469" gradientUnits="userSpaceOnUse">
<stop stop-color="#FFA620"/>
<stop offset="1" stop-color="#F39200"/>
</linearGradient>
<linearGradient id="paint13_linear_169_11197" x1="108.116" y1="85.4023" x2="108.116" y2="121.744" gradientUnits="userSpaceOnUse">
<stop stop-color="#FFD18C"/>
<stop offset="1" stop-color="#F4B75B"/>
</linearGradient>
<linearGradient id="paint14_linear_169_11197" x1="109.479" y1="91.7617" x2="109.479" y2="111.75" gradientUnits="userSpaceOnUse">
<stop stop-color="#FFA620"/>
<stop offset="1" stop-color="#F39200"/>
</linearGradient>
<linearGradient id="paint15_linear_169_11197" x1="109.024" y1="97.2129" x2="109.024" y2="107.207" gradientUnits="userSpaceOnUse">
<stop stop-color="#FFA620"/>
<stop offset="1" stop-color="#F39200"/>
</linearGradient>
</defs>
</svg>
