<svg width="135" height="150" viewBox="0 0 135 150" fill="none" xmlns="http://www.w3.org/2000/svg">
<path d="M127.633 50.4855C127.633 50.4855 107.252 67.6646 128.953 106.044C148.225 140.129 102.17 153.577 82.6338 149.199C57.3257 143.527 43.6984 110.538 23.9128 120.403C4.12713 130.269 -13.7385 82.9428 15.1082 66.3917C50.9926 45.8027 28.7594 32.7873 32.4018 17.1386C35.0156 5.90751 67.8651 -10.7548 84.687 9.5755C98.8424 26.683 106.216 20.8659 112.986 18.7931C122.75 15.8035 143.341 33.0933 127.633 50.4855Z" fill="#DEE9FF"/>
<path d="M107.017 25.2895L63.0393 18.0832C59.8138 17.5546 56.7706 19.741 56.2421 22.9665L41.0307 115.795C40.5022 119.021 42.6885 122.064 45.914 122.593L89.8918 129.799C93.1173 130.328 96.1606 128.141 96.6891 124.916L111.9 32.0868C112.429 28.8613 110.243 25.8181 107.017 25.2895Z" fill="#0E84E5"/>
<path d="M105.571 27.9057L63.5748 21.0241C61.4244 20.6717 59.3956 22.1292 59.0432 24.2796L44.1046 115.445C43.7522 117.595 45.2097 119.624 47.3601 119.976L89.3562 126.858C91.5066 127.21 93.5354 125.753 93.8878 123.603L108.826 32.4372C109.179 30.2869 107.721 28.2581 105.571 27.9057Z" fill="#699CFF"/>
<path d="M22.6119 95.7486C22.44 96.3455 22.449 96.9801 22.6378 97.5719C22.8266 98.1638 23.1866 98.6863 23.6723 99.0736C24.1581 99.4608 24.7478 99.6953 25.3668 99.7474C25.9858 99.7995 26.6064 99.6669 27.15 99.3663C27.6937 99.0658 28.136 98.6107 28.421 98.0588C28.7061 97.5068 28.821 96.8827 28.7514 96.2654C28.6818 95.6481 28.4306 95.0653 28.0298 94.5907C27.6289 94.1162 27.0964 93.7711 26.4994 93.5992C25.6989 93.3688 24.8396 93.4659 24.1106 93.8689C23.3816 94.272 22.8425 94.9481 22.6119 95.7486Z" fill="#699CFF"/>
<path d="M29.6395 89.197C29.6317 89.327 29.6089 89.4556 29.5715 89.5802C29.5046 89.8127 29.3925 90.0297 29.2414 90.2186C29.0904 90.4075 28.9035 90.5647 28.6914 90.6811C28.4807 90.7985 28.2486 90.8727 28.0088 90.8994C27.769 90.9261 27.5264 90.9047 27.2949 90.8365C26.536 90.6176 25.7413 90.5505 24.9563 90.6391C24.1714 90.7276 23.4116 90.9701 22.7205 91.3526C22.0293 91.7352 21.4204 92.2502 20.9286 92.8683C20.4367 93.4864 20.0716 94.1954 19.854 94.9548C19.787 95.1868 19.675 95.4033 19.5243 95.592C19.3737 95.7806 19.1873 95.9378 18.9759 96.0544C18.549 96.29 18.0459 96.3464 17.5775 96.2111C17.109 96.0758 16.7134 95.7599 16.4778 95.333C16.2422 94.906 16.1859 94.403 16.3212 93.9345C16.6695 92.7105 17.2576 91.5678 18.0513 90.5729C18.845 89.5781 19.8284 88.7508 20.9446 88.1393C21.7811 87.6751 22.6809 87.3354 23.6155 87.131L29.6395 89.197Z" fill="#699CFF"/>
<path d="M15.6827 84.4173L20.0657 85.9199C19.9718 85.9611 19.8805 86.0078 19.792 86.0597C18.4025 86.8221 17.1782 87.8526 16.1898 89.0916C15.2015 90.3306 14.469 91.7535 14.0346 93.2777C13.9691 93.5108 13.8582 93.7287 13.7082 93.9188C13.5582 94.1089 13.3721 94.2675 13.1606 94.3854C12.9491 94.5033 12.7164 94.5782 12.4758 94.6058C12.2352 94.6334 11.9916 94.6131 11.7589 94.5462C11.5262 94.4793 11.309 94.367 11.1198 94.2158C10.9307 94.0647 10.7733 93.8776 10.6567 93.6653C10.5402 93.4531 10.4667 93.2199 10.4406 92.9792C10.4145 92.7384 10.4363 92.4949 10.5047 92.2626C11.381 89.1764 13.1894 86.4363 15.6827 84.4173Z" fill="#699CFF"/>
<path d="M31.2429 83.7636C31.1071 84.2314 30.7918 84.6265 30.3659 84.8628C29.94 85.0991 29.4379 85.1574 28.9692 85.0251C28.119 84.7781 27.2442 84.6254 26.3606 84.5699L19.3588 82.1758C22.7107 80.7064 26.4727 80.4626 29.9863 81.4871C30.4544 81.6231 30.8494 81.939 31.085 82.3657C31.3205 82.7925 31.3773 83.2951 31.2429 83.7636Z" fill="#699CFF"/>
<path d="M9.23713 82.2155L13.0774 83.5258C10.7645 85.7356 9.08313 88.5225 8.20668 91.599C8.13987 91.8314 8.02773 92.0484 7.87671 92.2373C7.72569 92.4263 7.53878 92.5835 7.32675 92.6998C7.11685 92.8181 6.88545 92.8932 6.64613 92.9207C6.40682 92.9483 6.1644 92.9278 5.93312 92.8604C5.70093 92.7942 5.48408 92.6828 5.29499 92.5327C5.1059 92.3825 4.94827 92.1966 4.83113 91.9854C4.714 91.7743 4.63966 91.5421 4.61236 91.3022C4.58506 91.0623 4.60535 90.8194 4.67205 90.5874C5.55342 87.4925 7.11285 84.6327 9.23713 82.2155Z" fill="#699CFF"/>
<path d="M32.922 77.9361C32.7859 78.4041 32.4699 78.7991 32.0432 79.0345C31.6165 79.27 31.1139 79.3267 30.6454 79.1923C28.3579 78.5277 25.9613 78.3232 23.5943 78.5907C21.2272 78.8582 18.9367 79.5924 16.8553 80.7508C16.6453 80.8686 16.441 80.9834 16.2447 81.114L11.9384 79.6373C14.6672 77.442 17.8837 75.9347 21.3168 75.2424C24.75 74.5502 28.2992 74.6932 31.6656 75.6594C32.1336 75.7954 32.5287 76.1114 32.7642 76.5382C32.9997 76.9649 33.0564 77.4676 32.922 77.9361Z" fill="#699CFF"/>
<path d="M5.01627 82.4679L5.01623 82.468C4.72025 83.3329 5.1814 84.2739 6.04625 84.5699L29.795 92.6977C30.6599 92.9937 31.6009 92.5325 31.8969 91.6677L31.897 91.6676C32.1929 90.8027 31.7318 89.8617 30.8669 89.5657L7.11814 81.4379C6.25329 81.1419 5.31225 81.6031 5.01627 82.4679Z" fill="#699CFF"/>
<path d="M130.598 18.0456C127.404 16.7108 125.146 17.9912 124.612 19.2691C124.226 20.1922 124.829 20.9444 125.468 21.2114C126.746 21.7452 126.987 19.7054 129.4 20.7139C130.584 21.2081 131.312 22.1244 130.858 23.213C130.324 24.491 128.692 24.671 127.634 25.0074C126.701 25.3124 125.396 25.9071 124.546 27.9423C124.032 29.1729 124.215 29.6663 125.185 30.0717C126.344 30.5561 126.798 30.1343 126.986 29.6846C127.5 28.4539 127.821 27.7538 129.547 27.28C130.394 27.0499 133.078 26.2809 134.007 24.0563C134.937 21.8318 133.627 19.3111 130.598 18.0456Z" fill="#0E84E5"/>
<path d="M124.526 31.7145C124.044 31.5196 123.504 31.5225 123.025 31.7228C122.545 31.923 122.163 32.3044 121.963 32.7841C121.762 33.2638 121.759 33.8033 121.954 34.2853C122.149 34.7674 122.526 35.1533 123.003 35.3592C123.486 35.5577 124.028 35.5572 124.51 35.3576C124.992 35.158 125.376 34.7757 125.577 34.2941C125.778 33.8125 125.781 33.2708 125.584 32.7875C125.387 32.3041 125.006 31.9184 124.526 31.7145Z" fill="#0E84E5"/>
<path d="M70.5121 60.4752C70.8004 58.7005 70.2881 57.1407 69.3679 56.9912C68.4477 56.8417 67.468 58.1592 67.1797 59.9339C66.8914 61.7086 67.4037 63.2684 68.3239 63.4179C69.2441 63.5674 70.2238 62.2499 70.5121 60.4752Z" fill="white"/>
<path d="M89.701 63.6249C89.9922 61.8326 89.4822 60.2584 88.562 60.1089C87.6418 59.9595 86.6597 61.2912 86.3686 63.0836C86.0774 64.8759 86.5874 66.45 87.5076 66.5995C88.4278 66.749 89.4099 65.4172 89.701 63.6249Z" fill="white"/>
<path d="M81.8682 79.0749C81.8012 79.075 81.735 79.0615 81.6735 79.0351C81.612 79.0087 81.5565 78.97 81.5105 78.9214L80.8165 78.1907C79.7031 77.0219 78.2366 76.2511 76.6424 75.9971C75.0482 75.7431 73.4147 76.0199 71.9932 76.7849L71.1065 77.2637C71.0495 77.2944 70.987 77.3137 70.9225 77.3203C70.8581 77.3269 70.793 77.3208 70.7309 77.3023C70.6689 77.2837 70.6111 77.2531 70.5608 77.2123C70.5106 77.1714 70.4689 77.121 70.4381 77.064C70.4073 77.007 70.3881 76.9445 70.3815 76.8801C70.3748 76.8157 70.381 76.7505 70.3995 76.6885C70.418 76.6264 70.4486 76.5686 70.4895 76.5184C70.5304 76.4681 70.5808 76.4264 70.6377 76.3956L71.5245 75.9169C73.1367 75.0492 74.9894 74.7353 76.7974 75.0234C78.6055 75.3115 80.2689 76.1856 81.5316 77.5113L82.2256 78.242C82.292 78.312 82.3365 78.3998 82.3535 78.4948C82.3705 78.5897 82.3592 78.6875 82.3212 78.7762C82.2832 78.8648 82.22 78.9403 82.1394 78.9934C82.0589 79.0465 81.9646 79.0748 81.8682 79.0748V79.0749Z" fill="white"/>
</svg>
