<svg width="11" height="14" viewBox="0 0 11 14" fill="none" xmlns="http://www.w3.org/2000/svg">
<path d="M0.476878 1.162L5.48136 0L10.4858 1.162C10.6211 1.19341 10.742 1.27207 10.8287 1.38498C10.9154 1.4979 10.9627 1.63833 10.9627 1.78309V8.13845C10.9627 8.76701 10.8141 9.38584 10.5302 9.94001C10.2463 10.4942 9.83591 10.9665 9.33536 11.3152L5.48136 14L1.62735 11.3152C1.12689 10.9666 0.716511 10.4943 0.43263 9.94029C0.148749 9.38624 0.00014395 8.76754 0 8.13909V1.78309C2.37756e-05 1.63833 0.0472846 1.4979 0.133982 1.38498C0.22068 1.27207 0.341633 1.19341 0.476878 1.162ZM5.48136 7.95455L7.27132 8.93773L6.92965 6.85555L8.37734 5.38045L6.37603 5.07627L5.48136 3.18182L4.58607 5.07627L2.58537 5.38045L4.03306 6.85555L3.692 8.93773L5.48136 7.95455Z" fill="#FF8311"/>
</svg>
