<svg width="21" height="11" viewBox="0 0 21 11" fill="none" xmlns="http://www.w3.org/2000/svg">
<path fill-rule="evenodd" clip-rule="evenodd" d="M15.9011 3.8599C15.6306 3.40578 15.3318 2.98947 15.1389 2.83901C15.1277 2.83073 15.1171 2.82182 15.1068 2.81268C14.8292 2.66495 14.5779 2.57019 14.3702 2.55168C13.6477 2.48754 12.9019 2.45473 12.1758 2.45668L12.0047 4.81915C12.8433 4.77189 13.6793 4.71525 14.4622 4.66228C15.1039 4.61877 15.7096 4.57783 16.2682 4.5458C16.1698 4.33464 16.0414 4.09551 15.9011 3.8599ZM20.7355 7.81792C20.8728 7.88604 20.9742 8.01486 20.9957 8.17204V8.56273C21.0308 8.8185 20.8414 9.05294 20.5728 9.08638L19.72 9.19481C19.7239 9.14684 19.7265 9.09856 19.7278 9.0502V9.04911V9.04809V9.04763V9.04716V9.04614L19.7279 9.04513V9.04442V9.04411L19.728 9.04302V9.042V9.04106V9.04099V9.03989V9.03895L19.7281 9.03786V9.0377V9.03685L19.7282 9.03575V9.03474V9.03435V9.03372V9.03271V9.03161V9.03099V9.0306L19.7282 9.02958V9.02849V9.02763V9.02755L19.7283 9.02646V9.02536V9.02435V9.02427V9.02333V9.02231V9.0213V9.02091V9.02021L19.7284 9.01817L19.7285 9.01763V9.01716V9.01614V9.01513V9.01318V9.01208V9.01099V9.00997V9.00896V9.00794V9.00755V9.00685V9.00583V9.00482L19.7286 9.00427V9.0038V9.00271V9.00169L19.7287 9.00083V9.0006V8.99958V8.99857V8.99755V8.99646V8.99552V8.99443V8.99411V8.99333V8.99232V8.99247V8.99193V8.99138V8.99036V8.98935V8.98857V8.98833V8.98732V8.98622V8.98521L19.7285 8.95669V8.95216L19.7283 8.94943L19.7278 8.9206L19.7278 8.9181C19.7275 8.9081 19.7272 8.8981 19.7267 8.88802L19.7265 8.88388L19.7252 8.85459L19.725 8.85053L19.7235 8.82482L19.7232 8.82029L19.7229 8.816L19.721 8.78928L19.7209 8.78756L19.7207 8.78584L19.7185 8.75967L19.7182 8.75483L19.718 8.75397L19.7176 8.74912L19.7154 8.72748L19.715 8.72217L19.7146 8.71866L19.7116 8.69171L19.7111 8.68772L19.708 8.6621L19.7066 8.65163L19.7061 8.64835L19.7037 8.63077L19.7036 8.62882L19.7021 8.61937L19.6987 8.59679L19.6967 8.58405L19.6943 8.56898L19.6916 8.55304L19.6877 8.53085L19.6871 8.52804L19.6869 8.5264L19.6821 8.50171L19.6811 8.49593L19.6802 8.49179L19.6767 8.47445L19.6761 8.4714L19.6732 8.45765L19.673 8.45711L19.6693 8.44L19.6689 8.43812L19.6661 8.42539L19.6655 8.42281L19.6615 8.40562L19.6581 8.39141L19.6575 8.38852L19.6533 8.37133L19.6507 8.3611L19.647 8.34672L19.641 8.32383L19.6392 8.31743L19.6354 8.30321L19.6305 8.28633L19.6256 8.26938L19.6205 8.25251L19.6196 8.24946L19.6154 8.23571L19.6102 8.21892L19.605 8.2029L19.6047 8.20212L19.5993 8.1854L19.5941 8.17024L19.5927 8.16571L19.5831 8.13806L19.5814 8.13345L19.5707 8.10369L19.5695 8.10087L19.5639 8.08603L19.5577 8.06955L19.5571 8.06783L19.5513 8.05314L19.5449 8.03681L19.5383 8.02049L19.5315 8.00432L19.5252 7.98939L19.5247 7.98799L19.5178 7.97182C19.5108 7.9558 19.5037 7.93979 19.4964 7.92385L19.496 7.9233L19.4826 7.89432C19.3453 7.6041 19.153 7.33708 18.9113 7.10686C18.387 6.60766 17.6807 6.32885 16.9392 6.32885C16.1978 6.32885 15.4914 6.60766 14.9672 7.10686C14.443 7.60613 14.1503 8.27891 14.1503 8.98505C14.1503 9.09012 14.1569 9.19442 14.1695 9.29754H6.8305C6.84329 9.19442 6.84977 9.09012 6.84977 8.98505C6.84977 8.27891 6.55702 7.60613 6.03286 7.10686C5.50871 6.60766 4.80229 6.32885 4.06084 6.32885C3.31939 6.32885 2.61297 6.60766 2.08882 7.10686C1.78729 7.39411 1.56237 7.73886 1.42563 8.11415L1.42144 8.12579L1.41414 8.14642L1.41275 8.1504L1.41176 8.15321L1.40725 8.16634L1.40528 8.1722L1.39987 8.18853L1.39856 8.19251L1.39429 8.20571L1.39396 8.20688L1.39035 8.21829L1.38412 8.23837L1.38133 8.24759L1.37452 8.27055L1.37173 8.28024L1.37034 8.28501L1.36657 8.29836L1.3664 8.29907L1.36296 8.31149V8.31172L1.35935 8.325L1.35607 8.33719L1.35574 8.33836L1.355 8.3411L1.34909 8.36422L1.34688 8.3732L1.34155 8.395L1.33917 8.405L1.33392 8.42797L1.33294 8.43211L1.33285 8.4325L1.33212 8.43578L1.32687 8.46023L1.32473 8.47039L1.32006 8.49351L1.31956 8.49593L1.31874 8.50039L1.31358 8.52757L1.31349 8.52812V8.52835L1.30849 8.5564L1.30693 8.56585L1.30341 8.58749L1.30152 8.59976L1.29816 8.62179L1.29799 8.62335L1.29775 8.62476L1.29717 8.62897L1.29381 8.65358L1.29291 8.66069L1.28954 8.68819L1.28938 8.68983L1.28913 8.69241L1.28602 8.72006L1.28577 8.72233L1.28569 8.72381L1.28298 8.75147L1.28232 8.75858L1.27995 8.78694L1.27986 8.78772L1.27978 8.78944L1.27781 8.81725L1.27757 8.82037L1.27748 8.82193L1.27576 8.85139L1.2756 8.85435C1.27502 8.86498 1.27453 8.87552 1.27412 8.88615L1.27404 8.88709C1.27371 8.89638 1.27338 8.90568 1.27314 8.91505L1.27306 8.91912V8.92201L1.27248 8.94919V8.95224V8.95716L1.27232 8.98528V8.99021V8.99224V8.99505V8.99935V8.99997V9.00489V9.00653V9.00982L1.2724 9.01357V9.01482V9.01974V9.02075V9.02466V9.02786V9.02958L1.27248 9.0345V9.03489L1.27256 9.03942V9.042L1.27265 9.04427L1.27273 9.04903V9.04927L1.27281 9.05419V9.05606L1.27289 9.05903L1.27297 9.06325V9.06395L1.27314 9.06888V9.07028L1.27322 9.0738L1.2733 9.07731V9.07872L1.27347 9.08364V9.08442L1.27371 9.09145L1.27379 9.09348L1.2742 9.10325L1.27429 9.10551L1.27445 9.10809L1.27494 9.1177V9.11786L1.27502 9.11958L1.27519 9.1227L1.27535 9.12669V9.12762L1.2756 9.13254L1.27683 9.15207L1.27699 9.15481L1.27716 9.15692L1.27748 9.16184C1.28011 9.19926 1.28355 9.23652 1.28774 9.27371V9.27387L1.28831 9.27863L1.28856 9.28082L1.28938 9.28777L1.28946 9.28824L1.29061 9.29793C1.29619 9.34332 1.30308 9.38831 1.31112 9.43316L0.427106 9.32082C0.158467 9.28738 -0.0308527 9.05294 0.00417301 8.79717V8.40656C0.0272227 8.23821 0.141733 8.10251 0.293894 8.03892L0.36575 6.84234C0.40217 6.84804 0.440231 6.84804 0.47862 6.84132L1.31497 6.69484C1.49264 6.66383 1.61027 6.50149 1.57771 6.33228C1.54514 6.16307 1.37469 6.05105 1.19702 6.08214L0.403072 6.22112L0.411849 6.07401C0.421365 5.90918 0.519551 5.76895 0.659736 5.69294C1.20817 5.35334 1.94117 5.05281 2.73642 4.81243C3.54136 4.56916 4.41971 4.38308 5.23925 4.27769C5.86643 3.73733 6.71393 3.06759 7.53888 2.55183C8.2134 2.13021 8.88692 1.80507 9.44873 1.71609L9.4726 1.71242C9.47276 1.69219 9.47498 1.67172 9.47949 1.65117L9.79415 0.249051C9.82638 0.101792 9.96271 0.00062484 10.1145 0.000781083V0H14.378C14.5572 0 14.7026 0.136556 14.7061 0.306314L14.81 1.68586C15.3617 1.83312 15.9833 2.19755 16.6051 2.65488C17.2718 3.1454 17.9493 3.74592 18.5307 4.28668C19.3015 4.38417 19.5808 4.46487 20.0324 4.59557C20.0828 4.61018 20.137 4.6258 20.3171 4.67603C20.5361 4.73728 20.6763 4.93125 20.6695 5.13882L20.6768 5.43748C20.6588 5.43451 20.6404 5.43303 20.6215 5.43303H19.7853C19.6041 5.43303 19.4571 5.57294 19.4571 5.74551C19.4571 5.91808 19.6041 6.058 19.7853 6.058H20.6215C20.6456 6.058 20.669 6.05542 20.6916 6.05081L20.7355 7.81792ZM11.5183 2.4684C10.8392 2.49106 10.1895 2.54691 9.60753 2.6391C9.20068 2.70347 8.65306 2.97627 8.0783 3.33563C7.44718 3.73014 6.80031 4.22176 6.26082 4.66689C6.34727 4.69572 6.43947 4.72244 6.53708 4.74697C6.89202 4.83602 7.30773 4.89219 7.76766 4.91047C8.81425 4.95188 10.0673 4.91797 11.3456 4.85431L11.5183 2.4684ZM14.1474 1.59594L14.0743 0.625049H10.3808L10.1556 1.62414C10.6767 1.5693 11.2332 1.53727 11.8058 1.52665C12.5741 1.51235 13.3707 1.5368 14.1474 1.59594ZM6.89128 6.04878H7.71155V6.83H6.89128V6.04878ZM7.71155 6.83H8.53183V7.61121H7.71155V6.83ZM8.53183 6.04878H9.3521V6.83H8.53183V6.04878ZM9.3521 6.83H10.1724V7.61121H9.3521V6.83ZM10.1724 6.04878H10.9927V6.83H10.1724V6.04878ZM10.9927 6.83H11.8129V7.61121H10.9927V6.83ZM11.8129 6.04878H12.6332V6.83H11.8129V6.04878ZM12.6332 6.83H13.4535V7.61121H12.6332V6.83ZM13.4535 6.04878H14.2737V6.83H13.4535V6.04878Z" fill="#AAAAAA"/>
<path d="M16.9396 7.03239C17.5058 7.03239 18.0185 7.25097 18.3896 7.60439C18.7608 7.95781 18.9903 8.44607 18.9903 8.98542C18.9903 9.52462 18.7607 10.0129 18.3896 10.3664C18.0185 10.7197 17.5059 10.9384 16.9396 10.9384C16.3734 10.9384 15.8608 10.7197 15.4896 10.3664C15.1186 10.013 14.889 9.52469 14.889 8.98542C14.889 8.44615 15.1186 7.95789 15.4896 7.60439C15.8608 7.25097 16.3735 7.03239 16.9396 7.03239ZM4.06133 7.03239C4.62757 7.03239 5.14024 7.25097 5.51133 7.60439C5.88243 7.95781 6.11202 8.44607 6.11202 8.98542C6.11202 9.52462 5.88243 10.0129 5.51133 10.3664C5.14024 10.7197 4.62757 10.9384 4.06133 10.9384C3.4951 10.9384 2.98243 10.7197 2.61134 10.3664C2.24024 10.013 2.01065 9.52469 2.01065 8.98542C2.01065 8.44615 2.24016 7.95789 2.61134 7.60439C2.98251 7.25089 3.4951 7.03239 4.06133 7.03239ZM4.58344 8.48818C4.4499 8.361 4.26525 8.28233 4.06133 8.28233C3.85741 8.28233 3.67277 8.361 3.53923 8.48818C3.40569 8.61536 3.32309 8.79121 3.32309 8.98542C3.32309 9.17955 3.40569 9.3554 3.53923 9.48259C3.67277 9.60985 3.85741 9.68851 4.06133 9.68851C4.26525 9.68851 4.44982 9.60985 4.58344 9.48259C4.71698 9.3554 4.79958 9.17955 4.79958 8.98542C4.79958 8.79113 4.71698 8.61536 4.58344 8.48818ZM17.4617 8.48818C17.3281 8.361 17.1436 8.28233 16.9396 8.28233C16.7357 8.28233 16.5512 8.361 16.4175 8.48818C16.2841 8.61536 16.2014 8.79121 16.2014 8.98542C16.2014 9.17955 16.2841 9.3554 16.4175 9.48259C16.5512 9.60985 16.7357 9.68851 16.9396 9.68851C17.1436 9.68851 17.3281 9.60985 17.4617 9.48259C17.5952 9.3554 17.6779 9.17955 17.6779 8.98542C17.6779 8.79113 17.5952 8.61536 17.4617 8.48818Z" fill="#AAAAAA"/>
</svg>
