<svg width="49" height="27" viewBox="0 0 49 27" fill="none" xmlns="http://www.w3.org/2000/svg">
<path fill-rule="evenodd" clip-rule="evenodd" d="M37.1028 9.45681C36.4715 8.34421 35.7745 7.32425 35.3243 6.95561C35.2983 6.93532 35.2734 6.9135 35.2495 6.89111C34.6016 6.52918 34.0153 6.29701 33.5307 6.25165C31.8448 6.09451 30.1047 6.01412 28.4104 6.01891L28.0111 11.807C29.9678 11.6912 31.9185 11.5524 33.7452 11.4227C35.2427 11.3161 36.6558 11.2158 37.9593 11.1373C37.7298 10.6199 37.4301 10.0341 37.1028 9.45681ZM48.383 19.154C48.7034 19.3209 48.94 19.6365 48.9903 20.0216V20.9788C49.0721 21.6054 48.6301 22.1798 48.0035 22.2617L46.0135 22.5274C46.0227 22.4099 46.0288 22.2916 46.0319 22.1731V22.1705V22.168V22.1668V22.1657V22.1632L46.0321 22.1607V22.159V22.1582L46.0323 22.1555V22.153V22.1507V22.1505V22.1479V22.1456L46.0325 22.1429V22.1425V22.1404L46.0326 22.1377V22.1352V22.1343V22.1327V22.1303V22.1276V22.126V22.1251L46.0328 22.1226V22.1199V22.1178V22.1176L46.033 22.1149V22.1123V22.1098V22.1096V22.1073V22.1048V22.1023V22.1014V22.0996L46.0332 22.0947L46.0334 22.0933V22.0922V22.0897V22.0872V22.0824V22.0797V22.077V22.0746V22.0721V22.0696V22.0686V22.0669V22.0644V22.0619L46.0336 22.0606V22.0594V22.0568V22.0543L46.0338 22.0522V22.0516V22.0491V22.0466V22.0441V22.0414V22.0392V22.0365V22.0357V22.0338V22.0313V22.0317V22.0303V22.029V22.0265V22.024V22.0221V22.0215V22.0191V22.0164V22.0139L46.0334 21.944V21.9329L46.033 21.9262L46.0319 21.8556L46.0317 21.8495C46.0311 21.825 46.0303 21.8005 46.0292 21.7758L46.0288 21.7656L46.0258 21.6939L46.0252 21.6839L46.0217 21.6209L46.0212 21.6098L46.0204 21.5993L46.016 21.5339L46.0156 21.5296L46.0152 21.5254L46.0101 21.4613L46.0093 21.4495L46.0089 21.4473L46.008 21.4355L46.003 21.3825L46.0018 21.3694L46.0011 21.3608L45.994 21.2948L45.9928 21.285L45.9856 21.2223L45.9823 21.1966L45.9812 21.1886L45.9756 21.1455L45.9752 21.1407L45.9718 21.1176L45.9639 21.0623L45.9591 21.0311L45.9536 20.9941L45.9473 20.9551L45.9383 20.9007L45.9369 20.8938L45.9364 20.8898L45.9253 20.8293L45.9228 20.8152L45.9207 20.805L45.9126 20.7625L45.9111 20.7551L45.9044 20.7214L45.904 20.72L45.8954 20.6781L45.8945 20.6735L45.8879 20.6423L45.8864 20.636L45.877 20.5939L45.8692 20.5591L45.8677 20.552L45.8579 20.5099L45.852 20.4848L45.8434 20.4496L45.8292 20.3935L45.8252 20.3778L45.8162 20.343L45.8049 20.3016L45.7934 20.2601L45.7815 20.2188L45.7794 20.2113L45.7695 20.1776L45.7574 20.1365L45.7454 20.0972L45.7446 20.0953L45.732 20.0543L45.7199 20.0172L45.7165 20.0061L45.6941 19.9384L45.6902 19.9271L45.6652 19.8541L45.6625 19.8473L45.6495 19.8109L45.6349 19.7705L45.6334 19.7663L45.62 19.7303L45.6051 19.6903L45.5896 19.6503L45.5739 19.6107L45.5591 19.5741L45.558 19.5707L45.5417 19.5311C45.5254 19.4918 45.5088 19.4526 45.4918 19.4135L45.491 19.4122L45.4596 19.3412C45.1394 18.6302 44.6906 17.976 44.1265 17.4119C42.9033 16.1889 41.2551 15.5058 39.5251 15.5058C37.795 15.5058 36.1467 16.1889 34.9237 17.4119C33.7005 18.6351 33.0176 20.2835 33.0176 22.0135C33.0176 22.2709 33.0329 22.5265 33.0623 22.7791H15.9379C15.9678 22.5265 15.9829 22.2709 15.9829 22.0135C15.9829 20.2835 15.2998 18.6351 14.0768 17.4119C12.8537 16.1889 11.2054 15.5058 9.47535 15.5058C7.7453 15.5058 6.09697 16.1889 4.87394 17.4119C4.17036 18.1157 3.64554 18.9603 3.32648 19.8798L3.31672 19.9083L3.29969 19.9588L3.29643 19.9686L3.29413 19.9755L3.28361 20.0076L3.27901 20.022L3.26638 20.062L3.26332 20.0718L3.25337 20.1041L3.2526 20.107L3.24418 20.1349L3.22963 20.1841L3.22313 20.2067L3.20724 20.263L3.20073 20.2867L3.19748 20.2984L3.18867 20.3311L3.18829 20.3328L3.18025 20.3633V20.3638L3.17183 20.3964L3.16418 20.4262L3.16341 20.4291L3.16169 20.4358L3.14791 20.4925L3.14274 20.5145L3.1303 20.5679L3.12475 20.5924L3.1125 20.6486L3.1102 20.6588L3.11001 20.6597L3.10829 20.6678L3.09604 20.7277L3.09106 20.7526L3.08015 20.8092L3.079 20.8152L3.07709 20.8261L3.06503 20.8927L3.06484 20.894V20.8946L3.05316 20.9633L3.04953 20.9865L3.0413 21.0395L3.03689 21.0695L3.02905 21.1235L3.02866 21.1273L3.02809 21.1308L3.02675 21.1411L3.0189 21.2014L3.0168 21.2188L3.00895 21.2862L3.00857 21.2902L3.00799 21.2965L3.00072 21.3643L3.00015 21.3698L2.99996 21.3735L2.99364 21.4412L2.99211 21.4586L2.98656 21.5281L2.98637 21.53L2.98617 21.5342L2.98158 21.6024L2.98101 21.61L2.98082 21.6139L2.9768 21.686L2.97641 21.6933C2.97507 21.7193 2.97393 21.7452 2.97297 21.7712L2.97278 21.7735C2.97201 21.7963 2.97125 21.819 2.97067 21.842L2.97048 21.852V21.859L2.96914 21.9257V21.9331V21.9452L2.96876 22.0141V22.0261V22.0311V22.038V22.0485V22.0501V22.0621V22.0661V22.0742L2.96895 22.0834V22.0864V22.0985V22.101V22.1105V22.1184V22.1226L2.96914 22.1347V22.1356L2.96933 22.1467V22.153L2.96952 22.1586L2.96971 22.1703V22.1708L2.96991 22.1829V22.1875L2.9701 22.1948L2.97029 22.2051V22.2068L2.97067 22.2189V22.2223L2.97086 22.2309L2.97105 22.2395V22.243L2.97144 22.255V22.257L2.97201 22.2742L2.9722 22.2792L2.97316 22.3031L2.97335 22.3086L2.97373 22.315L2.97488 22.3385V22.3389L2.97507 22.3431L2.97546 22.3507L2.97584 22.3605V22.3628L2.97641 22.3749L2.97928 22.4227L2.97967 22.4294L2.98005 22.4346L2.98082 22.4466C2.98694 22.5383 2.99498 22.6296 3.00474 22.7207V22.7211L3.00608 22.7328L3.00665 22.7381L3.00857 22.7552L3.00876 22.7563L3.01144 22.7801C3.02445 22.8913 3.04053 23.0015 3.05929 23.1114L0.996588 22.8361C0.369758 22.7542 -0.0719901 22.1798 0.00973708 21.5532V20.5962C0.0635201 20.1837 0.330712 19.8513 0.685756 19.6955L0.853421 16.7638C0.938402 16.7778 1.02721 16.7778 1.11679 16.7613L3.06828 16.4025C3.48285 16.3265 3.75732 15.9288 3.68133 15.5142C3.60535 15.0996 3.20762 14.8251 2.79305 14.9013L0.940508 15.2418L0.960987 14.8814C0.98319 14.4776 1.21229 14.134 1.53939 13.9478C2.81908 13.1158 4.52942 12.3795 6.38503 11.7905C8.26322 11.1945 10.3127 10.7386 12.225 10.4804C13.6884 9.1565 15.6659 7.51564 17.5908 6.25203C19.1647 5.21905 20.7363 4.42245 22.0472 4.20445L22.1029 4.19545C22.1032 4.14588 22.1084 4.09574 22.1189 4.0454L22.8531 0.610178C22.9284 0.249392 23.2465 0.00153087 23.6007 0.00191366V0H33.5489C33.9669 0 34.3062 0.334564 34.3145 0.750473L34.557 4.13038C35.8441 4.49116 37.2945 5.38404 38.7455 6.50449C40.301 7.70628 41.882 9.17756 43.2386 10.5024C45.037 10.7413 45.6887 10.939 46.7425 11.2592C46.8603 11.295 46.9866 11.3333 47.4069 11.4563C47.9179 11.6064 48.245 12.0816 48.2291 12.5902L48.2462 13.3219C48.2043 13.3146 48.1612 13.311 48.1172 13.311H46.1659C45.7431 13.311 45.4003 13.6538 45.4003 14.0766C45.4003 14.4994 45.7431 14.8422 46.1659 14.8422H48.1172C48.1732 14.8422 48.228 14.8359 48.2806 14.8246L48.383 19.154ZM26.8761 6.04762C25.2916 6.10312 23.7757 6.23997 22.4177 6.46582C21.4684 6.62354 20.1906 7.2919 18.8495 8.17233C17.3768 9.13889 15.8675 10.3434 14.6087 11.434C14.8104 11.5046 15.0255 11.57 15.2533 11.6301C16.0815 11.8483 17.0515 11.9859 18.1246 12.0307C20.5667 12.1322 23.4905 12.0491 26.4733 11.8931L26.8761 6.04762ZM33.0109 3.91008L32.8401 1.53138H24.222L23.6964 3.97917C24.9124 3.84481 26.211 3.76634 27.547 3.74031C29.3398 3.70528 31.1985 3.76519 33.0109 3.91008ZM16.0797 14.8196H17.9937V16.7336H16.0797V14.8196ZM17.9937 16.7336H19.9077V18.6476H17.9937V16.7336ZM19.9077 14.8196H21.8217V16.7336H19.9077V14.8196ZM21.8217 16.7336H23.7357V18.6476H21.8217V16.7336ZM23.7357 14.8196H25.6497V16.7336H23.7357V14.8196ZM25.6497 16.7336H27.5637V18.6476H25.6497V16.7336ZM27.5637 14.8196H29.4776V16.7336H27.5637V14.8196ZM29.4776 16.7336H31.3916V18.6476H29.4776V16.7336ZM31.3916 14.8196H33.3056V16.7336H31.3916V14.8196Z" fill="#24B787"/>
<path d="M39.5263 17.2294C40.8473 17.2294 42.0435 17.7649 42.9096 18.6308C43.7757 19.4967 44.3112 20.6929 44.3112 22.0143C44.3112 23.3353 43.7755 24.5316 42.9096 25.3977C42.0437 26.2634 40.8475 26.7991 39.5263 26.7991C38.2051 26.7991 37.009 26.2634 36.1427 25.3977C35.277 24.5318 34.7413 23.3355 34.7413 22.0143C34.7413 20.6931 35.277 19.4968 36.1427 18.6308C37.009 17.7649 38.2052 17.2294 39.5263 17.2294ZM9.47672 17.2294C10.7979 17.2294 11.9942 17.7649 12.8601 18.6308C13.726 19.4967 14.2617 20.6929 14.2617 22.0143C14.2617 23.3353 13.726 24.5316 12.8601 25.3977C11.9942 26.2634 10.7979 26.7991 9.47672 26.7991C8.15549 26.7991 6.95925 26.2634 6.09337 25.3977C5.22748 24.5318 4.69175 23.3355 4.69175 22.0143C4.69175 20.6931 5.22729 19.4968 6.09337 18.6308C6.95944 17.7647 8.15549 17.2294 9.47672 17.2294ZM10.695 20.7961C10.3834 20.4845 9.95253 20.2917 9.47672 20.2917C9.0009 20.2917 8.57006 20.4845 8.25846 20.7961C7.94687 21.1077 7.75413 21.5385 7.75413 22.0143C7.75413 22.4899 7.94687 22.9208 8.25846 23.2324C8.57006 23.5442 9.0009 23.7369 9.47672 23.7369C9.95253 23.7369 10.3832 23.5442 10.695 23.2324C11.0066 22.9208 11.1993 22.4899 11.1993 22.0143C11.1993 21.5383 11.0066 21.1077 10.695 20.7961ZM40.7443 20.7961C40.4327 20.4845 40.0021 20.2917 39.5263 20.2917C39.0505 20.2917 38.6198 20.4845 38.308 20.7961C37.9966 21.1077 37.8037 21.5385 37.8037 22.0143C37.8037 22.4899 37.9966 22.9208 38.308 23.2324C38.6198 23.5442 39.0505 23.7369 39.5263 23.7369C40.0021 23.7369 40.4327 23.5442 40.7443 23.2324C41.0559 22.9208 41.2489 22.4899 41.2489 22.0143C41.2489 21.5383 41.0559 21.1077 40.7443 20.7961Z" fill="#24B787"/>
</svg>
