<svg width="24" height="15" viewBox="0 0 24 15" fill="none" xmlns="http://www.w3.org/2000/svg">
<path fill-rule="evenodd" clip-rule="evenodd" d="M4.81254 9.69378C5.89385 9.12054 8.8421 7.28613 8.8421 4.32584C8.8421 1.93675 6.86273 0 4.42105 0C1.97937 0 0 1.93675 0 4.32584C0 7.28613 2.94826 9.12055 4.02956 9.69378C4.27628 9.82458 4.56583 9.82458 4.81254 9.69378ZM4.42095 6.17978C5.46738 6.17978 6.31568 5.34975 6.31568 4.32585C6.31568 3.30195 5.46738 2.47191 4.42095 2.47191C3.37451 2.47191 2.52621 3.30195 2.52621 4.32585C2.52621 5.34975 3.37451 6.17978 4.42095 6.17978Z" fill="#838384"/>
<path fill-rule="evenodd" clip-rule="evenodd" d="M19.9705 9.86224C21.0518 9.289 24.0001 7.45459 24.0001 4.4943C24.0001 2.1052 22.0207 0.168457 19.579 0.168457C17.1373 0.168457 15.158 2.1052 15.158 4.4943C15.158 7.45459 18.1062 9.289 19.1875 9.86224C19.4342 9.99303 19.7238 9.99303 19.9705 9.86224ZM19.5788 6.34823C20.6253 6.34823 21.4736 5.5182 21.4736 4.4943C21.4736 3.4704 20.6253 2.64037 19.5788 2.64037C18.5324 2.64037 17.6841 3.4704 17.6841 4.4943C17.6841 5.5182 18.5324 6.34823 19.5788 6.34823Z" fill="#838384"/>
<path d="M19.7226 11.1235C18.6303 11.1235 17.7417 11.993 17.7417 13.0617C17.7417 14.1305 18.6303 14.9999 19.7226 14.9999C20.8148 14.9999 21.7034 14.1305 21.7034 13.0617C21.7034 11.993 20.8148 11.1235 19.7226 11.1235ZM19.7226 13.8598C19.2728 13.8598 18.9069 13.5018 18.9069 13.0617C18.9069 12.6217 19.2728 12.2637 19.7226 12.2637C20.1723 12.2637 20.5382 12.6217 20.5382 13.0617C20.5382 13.5018 20.1723 13.8598 19.7226 13.8598Z" fill="#838384"/>
<path d="M15.9494 12.3035H14.3662C14.0423 12.3035 13.7798 12.6053 13.7798 12.9776C13.7798 13.35 14.0423 13.6518 14.3662 13.6518H15.9494C16.2732 13.6518 16.5358 13.35 16.5358 12.9776C16.5358 12.6053 16.2732 12.3035 15.9494 12.3035Z" fill="#838384"/>
<path d="M12.3506 12.4917H6.01665C5.77347 11.7003 5.03795 11.1235 4.17064 11.1235C3.10565 11.1235 2.23926 11.993 2.23926 13.0617C2.23926 14.1305 3.10565 14.9999 4.17064 14.9999C5.03795 14.9999 5.77352 14.4232 6.01665 13.6318H12.3506C12.6644 13.6318 12.9187 13.3766 12.9187 13.0617C12.9187 12.7469 12.6644 12.4917 12.3506 12.4917ZM4.17064 13.8598C3.73211 13.8598 3.37537 13.5018 3.37537 13.0617C3.37537 12.6217 3.73211 12.2637 4.17064 12.2637C4.60918 12.2637 4.96592 12.6217 4.96592 13.0617C4.96592 13.5018 4.60918 13.8598 4.17064 13.8598Z" fill="#838384"/>
</svg>
