<svg width="187" height="139" viewBox="0 0 187 139" fill="none" xmlns="http://www.w3.org/2000/svg">
<path d="M54.2691 22.5306C54.2691 22.5306 75.4008 38.5667 107.526 8.5821C136.057 -18.0465 159.353 23.9675 159.516 44.0872C159.727 70.1501 130.985 91.0044 144.934 108.123C158.882 125.241 117.272 153.51 94.8462 129.045C66.9494 98.6126 59.3918 123.339 43.4908 123.339C32.0784 123.339 8.64776 94.9826 24.4702 73.886C37.7847 56.1335 30.5232 50.2418 27.0068 44.0872C21.9342 35.211 33.9806 11.1183 54.2691 22.5306Z" fill="#DEE9FF"/>
<path d="M139.106 57.9678C140.242 58.3898 141.483 58.4179 142.664 58.1468C147.612 57.0111 164.626 54.004 161.669 67.1879C161.025 69.8037 151.061 84.4526 165.251 89.8001C166.291 90.1968 167.391 90.4134 168.504 90.4406C172.873 90.5305 181.531 89.499 185.154 85.8103C189.532 81.3544 184.749 83.4675 184.749 83.4675C184.749 83.4675 168.108 90.7297 162.23 83.025C161.576 82.1677 161.159 80.9226 161.04 79.8508C160.833 77.9924 161.658 75.5365 162.742 73.3987C164.209 70.5053 171.253 57.4895 155.96 53.6978C152.437 52.8589 147.321 52.1053 140.723 54.883C136.875 56.5031 137.727 57.4555 139.106 57.9678Z" fill="#BDD6F9"/>
<path d="M142.511 53.1084L138.082 54.7662C136.553 55.3385 135.777 57.0419 136.349 58.5709L136.569 59.1575C137.141 60.6866 138.845 61.4622 140.374 60.8899L144.803 59.2322C146.332 58.6599 147.108 56.9565 146.535 55.4275L146.316 54.8408C145.744 53.3118 144.04 52.5362 142.511 53.1084Z" fill="#0E84E5"/>
<path d="M115.322 57.9055L100.714 63.3727C99.9499 63.6588 99.5621 64.5106 99.8482 65.2751L99.9058 65.4288C100.192 66.1933 101.044 66.5811 101.808 66.295L116.416 60.8278C117.181 60.5417 117.568 59.69 117.282 58.9255L117.225 58.7717C116.939 58.0072 116.087 57.6194 115.322 57.9055Z" fill="white"/>
<path d="M119.4 68.7987L104.792 74.2659C104.027 74.552 103.639 75.4037 103.925 76.1683L103.983 76.322C104.269 77.0865 105.121 77.4743 105.885 77.1882L120.493 71.721C121.258 71.4348 121.646 70.5831 121.36 69.8186L121.302 69.6649C121.016 68.9003 120.164 68.5125 119.4 68.7987Z" fill="white"/>
<path d="M132.886 50.4714L121.047 54.9025C119.518 55.4747 118.742 57.1782 119.314 58.7072L123.357 69.5075C123.929 71.0366 125.632 71.8122 127.161 71.2399L139.001 66.8089C140.53 66.2366 141.305 64.5332 140.733 63.0042L136.691 52.2038C136.119 50.6748 134.415 49.8992 132.886 50.4714Z" fill="#5895F9"/>
<path d="M122.27 53.305L110.431 57.736C108.902 58.3083 108.126 60.0117 108.698 61.5408L113.521 74.426C114.093 75.9551 115.796 76.7307 117.325 76.1584L129.165 71.7274C130.694 71.1551 131.47 69.4517 130.897 67.9227L126.075 55.0374C125.503 53.5083 123.799 52.7327 122.27 53.305Z" fill="#699CFF"/>
<path d="M124.123 50.69L124.03 50.7247C123.011 51.1062 122.494 52.2418 122.876 53.2612L129.631 71.3121C130.013 72.3314 131.148 72.8485 132.168 72.467L132.261 72.4322C133.28 72.0507 133.797 70.9151 133.416 69.8958L126.66 51.8449C126.278 50.8255 125.143 50.3085 124.123 50.69Z" fill="#208AF2"/>
<path d="M3.40006 62.2308C3.40006 62.2308 27.1777 55.5487 23.7256 70.9437C23.1261 73.3796 14.4963 85.9222 24.7757 91.9443C26.9829 93.2374 29.53 93.8102 32.0879 93.7968C36.6741 93.7729 43.9446 92.8902 47.2108 89.5657C51.5882 85.1097 46.806 87.2228 46.806 87.2228C46.806 87.2228 33.1502 92.8401 26.1247 88.3624C23.7259 86.8335 22.6385 83.8733 23.2899 81.1041C23.6229 79.7286 24.1299 78.4012 24.7987 77.154C26.3266 74.2923 33.3095 61.2448 18.0167 57.4531C14.4938 56.6142 9.37708 55.8606 2.77957 58.6383C-3.81793 61.416 3.40006 62.2308 3.40006 62.2308Z" fill="#BDD6F9"/>
<path d="M50.4077 83.778L45.9784 85.4357C44.4493 86.008 43.6737 87.7114 44.246 89.2404L44.4655 89.8271C45.0378 91.3561 46.7412 92.1318 48.2702 91.5595L52.6996 89.9017C54.2287 89.3295 55.0043 87.626 54.432 86.097L54.2125 85.5103C53.6402 83.9813 51.9368 83.2057 50.4077 83.778Z" fill="#0E84E5"/>
<path d="M57.8916 76.4901L51.327 78.947C49.798 79.5193 49.0224 81.2227 49.5946 82.7517L52.76 91.2095C53.3323 92.7385 55.0357 93.5141 56.5647 92.9418L63.1293 90.485C64.6584 89.9127 65.434 88.2093 64.8617 86.6802L61.6963 78.2225C61.124 76.6935 59.4206 75.9179 57.8916 76.4901Z" fill="#5895F9"/>
<path d="M68.8202 69.9789L59.0305 73.6428C57.5015 74.2151 56.7259 75.9185 57.2982 77.4475L62.1206 90.3328C62.6929 91.8618 64.3963 92.6374 65.9253 92.0652L75.715 88.4013C77.244 87.829 78.0196 86.1256 77.4474 84.5966L72.6249 71.7113C72.0526 70.1822 70.3492 69.4066 68.8202 69.9789Z" fill="#699CFF"/>
<path d="M70.8937 67.3104L70.8009 67.3451C69.7815 67.7266 69.2644 68.8622 69.6459 69.8816L76.4017 87.9324C76.7832 88.9518 77.9188 89.4689 78.9382 89.0874L79.031 89.0526C80.0504 88.6711 80.5675 87.5355 80.186 86.5161L73.4302 68.4653C73.0487 67.4459 71.9131 66.9289 70.8937 67.3104Z" fill="#208AF2"/>
<path d="M95.8917 55.8102C95.5392 55.7711 95.2156 55.5967 94.989 55.3238C94.7624 55.0508 94.6506 54.7007 94.677 54.3469L95.4074 41.0051C95.451 40.2081 96.124 39.6026 96.8877 39.6731L97.9519 39.7716C98.7157 39.8421 99.2625 40.5599 99.1556 41.3512L97.3607 54.5945C97.3194 54.9473 97.1437 55.2706 96.87 55.497C96.5964 55.7235 96.246 55.8356 95.8917 55.8102Z" fill="#418DF9"/>
<path d="M89.5847 56.9607C89.475 56.993 89.3601 57.0033 89.2465 56.9911C89.1328 56.9789 89.0227 56.9444 88.9224 56.8896C88.8221 56.8349 88.7335 56.7609 88.6618 56.6719C88.5901 56.5829 88.5366 56.4807 88.5044 56.371L85.896 48.0717C85.8201 47.8356 85.841 47.5792 85.954 47.3585C86.067 47.1378 86.2629 46.971 86.4988 46.8947L87.1742 46.6909C87.29 46.6571 87.4117 46.6476 87.5314 46.6632C87.6511 46.6787 87.7663 46.719 87.8696 46.7813C87.973 46.8436 88.0624 46.9267 88.132 47.0252C88.2017 47.1238 88.2501 47.2358 88.2743 47.354L90.2076 55.8572C90.2615 56.0858 90.2273 56.3263 90.1119 56.5308C89.9964 56.7353 89.8082 56.8888 89.5847 56.9607Z" fill="#418DF9"/>
<path d="M86.0649 61.7468C85.5975 62.3259 84.6576 62.319 83.934 61.7311L71.0878 51.294C70.3205 50.6706 70.0941 49.6386 70.5899 49.0247L71.2809 48.1686C71.7768 47.5544 72.7952 47.6048 73.5213 48.2794L85.6764 59.5727C86.361 60.2087 86.5322 61.1677 86.0649 61.7468Z" fill="#418DF9"/>
<path d="M92.0035 88.7046C92.3344 88.8325 92.6027 89.0837 92.7521 89.4055C92.9015 89.7272 92.9202 90.0943 92.8043 90.4296L88.6907 103.142C88.445 103.901 87.6397 104.315 86.9192 104.052L85.915 103.685C85.1946 103.422 84.8489 102.588 85.1546 101.85L90.2723 89.5047C90.4022 89.174 90.6547 88.9062 90.9773 88.7571C91.2998 88.6081 91.6674 88.5893 92.0035 88.7046Z" fill="#418DF9"/>
<path d="M98.3953 89.2037C98.5095 89.2006 98.6233 89.2199 98.73 89.2607C98.8368 89.3016 98.9345 89.363 99.0175 89.4416C99.1005 89.5201 99.1672 89.6143 99.2139 89.7186C99.2605 89.823 99.2861 89.9355 99.2892 90.0497L99.6916 98.7401C99.7047 98.9877 99.619 99.2303 99.4534 99.4148C99.2878 99.5993 99.0557 99.7105 98.8082 99.7242L98.103 99.7487C97.9823 99.7518 97.8623 99.7298 97.7506 99.6842C97.6388 99.6386 97.5377 99.5703 97.4537 99.4836C97.3696 99.397 97.3045 99.2938 97.2623 99.1807C97.2202 99.0676 97.2019 98.947 97.2087 98.8265L97.5115 90.1116C97.5178 89.8769 97.6122 89.6532 97.776 89.4849C97.9397 89.3167 98.1608 89.2163 98.3953 89.2037Z" fill="#418DF9"/>
<path d="M103.021 85.4753C103.62 85.0347 104.527 85.2814 105.077 86.0346L114.832 99.406C115.414 100.205 115.37 101.26 114.733 101.727L113.846 102.378C113.21 102.846 112.238 102.537 111.708 101.699L102.84 87.676C102.342 86.8867 102.421 85.9157 103.021 85.4753Z" fill="#418DF9"/>
</svg>
