<svg width="12" height="14" viewBox="0 0 12 14" fill="none" xmlns="http://www.w3.org/2000/svg">
<path fill-rule="evenodd" clip-rule="evenodd" d="M6.4109 13.5097C7.76489 12.7955 11.9999 10.2242 11.9999 5.99996C11.9999 2.68627 9.31364 0 5.99996 0C2.68627 0 0 2.68627 0 5.99996C0 10.2242 4.23503 12.7955 5.58901 13.5097C5.84816 13.6464 6.15175 13.6464 6.4109 13.5097ZM5.99996 8.57137C7.42011 8.57137 8.57137 7.42011 8.57137 5.99996C8.57137 4.57981 7.42011 3.42855 5.99996 3.42855C4.57981 3.42855 3.42855 4.57981 3.42855 5.99996C3.42855 7.42011 4.57981 8.57137 5.99996 8.57137Z" fill="white"/>
</svg>
