<svg width="48" height="31" viewBox="0 0 48 31" fill="none" xmlns="http://www.w3.org/2000/svg">
<path fill-rule="evenodd" clip-rule="evenodd" d="M3.30876 8.36229L3.11431 4.61196H5.41907L7.21172 8.36229H7.63982L7.44537 4.61196H9.75013L11.5428 8.36229H26.3539L27.8196 4.61815L26.6437 0H27.1711L28.9711 4.61196H31.2522L37.7409 10.3408L43.8113 15.7004H47.4306C47.8712 15.7004 48.1531 16.1883 47.9108 16.556L41.9986 25.5337C41.8587 25.8709 41.6198 26.0888 41.3507 26.1951C41.1763 26.2639 40.9999 26.2969 40.8341 26.295C40.6609 26.2932 40.4824 26.2558 40.3128 26.1855C40.0612 26.0811 39.8484 25.8891 39.7411 25.6177C39.3584 24.6513 38.6567 24.007 37.8429 23.6692C37.4285 23.4973 36.979 23.4122 36.5241 23.4116C36.0761 23.4108 35.6396 23.49 35.2437 23.6465C34.4233 23.9708 33.7134 24.6096 33.3301 25.5335C33.1904 25.8707 32.9517 26.0886 32.6824 26.1949C32.5078 26.2637 32.3314 26.2967 32.1658 26.2948C31.9926 26.293 31.8139 26.2557 31.6443 26.1853C31.3927 26.0809 31.18 25.8889 31.0726 25.6175C30.6899 24.6511 29.9884 24.0068 29.1744 23.6691C28.7602 23.4971 28.3105 23.412 27.8556 23.4114C27.4076 23.4107 26.9711 23.4898 26.5752 23.6464C25.7548 23.9706 25.0451 24.6094 24.6618 25.5333C24.5191 25.8772 24.2815 26.0933 24.0166 26.1947C23.8401 26.2622 23.6603 26.2935 23.4902 26.2903C23.3122 26.2872 23.1298 26.2481 22.9578 26.1771C22.7133 26.0758 22.5134 25.9035 22.4255 25.6738C22.0332 24.6516 21.2899 23.9734 20.4301 23.637C20.0397 23.4838 19.6159 23.4071 19.1833 23.4065C18.8824 23.406 18.5788 23.4463 18.2821 23.5277C18.1726 23.5522 18.0633 23.5849 17.9551 23.6257C17.0918 23.9571 16.3436 24.6331 15.9504 25.6361C15.8528 25.8849 15.6389 26.0728 15.3792 26.1823C15.2121 26.2527 15.028 26.2917 14.8416 26.2958C14.6737 26.2997 14.502 26.271 14.339 26.2071C14.0778 26.1047 13.8406 25.8834 13.6895 25.5247C13.3114 24.6276 12.6272 24.0032 11.837 23.6756C11.4248 23.5048 10.9724 23.4159 10.5113 23.4135C10.0558 23.4108 9.59393 23.499 9.15852 23.6826C8.37489 24.0128 7.70152 24.6245 7.32423 25.5333C7.18622 25.8667 6.95033 26.0884 6.68349 26.1985C6.53385 26.26 6.35777 26.2911 6.16932 26.2911V26.3003H6.15019C5.84829 26.2013 5.55596 26.0756 5.27281 25.9273C5.17474 25.8232 5.09167 25.6967 5.03016 25.5474C3.88556 22.7753 0.322191 23.5592 3.77032e-05 16.1545C-0.0121509 15.8704 2.93467 9.39081 3.30876 8.36229ZM10.5028 20.2743C11.1242 20.2743 11.6279 19.7704 11.6279 19.1492C11.6279 18.5279 11.1242 18.0241 10.5028 18.0241C9.88158 18.0241 9.37772 18.5279 9.37772 19.1492C9.37772 19.7704 9.88158 20.2743 10.5028 20.2743ZM3.41283 13.8003H38.2592L39.9584 15.3004H2.76121C2.9763 14.7993 3.19419 14.2996 3.41283 13.8003ZM4.7472 10.8C4.52799 11.3031 4.29903 11.8062 4.07645 12.3001H36.5601L34.8608 10.8H4.7472ZM17.0072 20.2743C17.6284 20.2743 18.1323 19.7704 18.1323 19.1492C18.1323 18.5279 17.6286 18.0241 17.0072 18.0241C16.3858 18.0241 15.8821 18.5279 15.8821 19.1492C15.8821 19.7704 16.3858 20.2743 17.0072 20.2743ZM23.4934 20.2743C24.1148 20.2743 24.6185 19.7704 24.6185 19.1492C24.6185 18.5279 24.1148 18.0241 23.4934 18.0241C22.8721 18.0241 22.3683 18.5279 22.3683 19.1492C22.3683 19.7704 22.8723 20.2743 23.4934 20.2743ZM30.0002 20.2743C30.6216 20.2743 31.1253 19.7704 31.1253 19.1492C31.1253 18.5279 30.6216 18.0241 30.0002 18.0241C29.379 18.0241 28.8751 18.5279 28.8751 19.1492C28.8751 19.7704 29.379 20.2743 30.0002 20.2743ZM36.5068 20.2743C37.1282 20.2743 37.6319 19.7704 37.6319 19.1492C37.6319 18.5279 37.1282 18.0241 36.5068 18.0241C35.8856 18.0241 35.3817 18.5279 35.3817 19.1492C35.3817 19.7704 35.8856 20.2743 36.5068 20.2743Z" fill="#2FA6C4"/>
<path fill-rule="evenodd" clip-rule="evenodd" d="M9.50705 26.5115C9.89127 25.5861 11.1549 25.6572 11.5152 26.5123C12.8478 29.6743 17.1073 29.2327 18.1515 26.5681C18.5303 25.6024 19.8268 25.5782 20.214 26.5874C21.2525 29.2933 25.5646 29.5969 26.8446 26.5117C27.2054 25.6416 28.4835 25.5805 28.8705 26.5588C29.9799 29.364 34.2538 29.5474 35.5131 26.5117C35.8741 25.6416 37.1522 25.5805 37.539 26.5588C38.6484 29.364 42.9224 29.5474 44.1816 26.5117C44.8203 24.9722 47.9888 26.1702 44.9379 29.2209C43.845 30.314 42.421 30.8739 40.9892 30.9069C39.3486 30.9448 37.6964 30.2911 36.5186 28.9554C34.2373 31.5457 30.1569 31.5713 27.8499 28.9554C25.5693 31.5452 21.4893 31.5718 19.1808 28.9554C16.9096 31.5414 12.8246 31.5743 10.5118 28.9563C9.11214 30.5424 7.10384 31.1321 5.2403 30.8285C3.37677 30.5251 1.65837 29.3282 0.838736 27.3416C0.296439 26.0272 2.30324 25.1989 2.84666 26.5162C4.0702 29.4818 8.28613 29.4583 9.50705 26.5115Z" fill="#2FA6C4"/>
</svg>
