<svg width="16" height="16" viewBox="0 0 16 16" fill="none" xmlns="http://www.w3.org/2000/svg">
<path fill-rule="evenodd" clip-rule="evenodd" d="M0 8C0 12.4183 3.58172 16 8 16C12.4183 16 16 12.4183 16 8C16 3.58172 12.4183 0 8 0C3.58172 0 0 3.58172 0 8ZM14.5459 8.00049C14.5459 11.6154 11.6154 14.5459 8.00044 14.5459C4.38549 14.5459 1.45499 11.6154 1.45499 8.00049C1.45499 4.38554 4.38549 1.45504 8.00044 1.45504C11.6154 1.45504 14.5459 4.38554 14.5459 8.00049ZM8.73048 9.45321H9.45727V10.9078H6.54818V9.45321H7.27546V7.99866H6.54818V6.54411H8.73048V9.45321ZM8.72732 5.08954C8.72732 5.4912 8.4016 5.81681 7.9998 5.81681C7.59801 5.81681 7.27229 5.4912 7.27229 5.08954C7.27229 4.68788 7.59801 4.36227 7.9998 4.36227C8.4016 4.36227 8.72732 4.68788 8.72732 5.08954Z" fill="#FF8311"/>
</svg>
