<svg width="15" height="19" viewBox="0 0 15 19" fill="none" xmlns="http://www.w3.org/2000/svg">
<g opacity="0.5">
<path d="M2.7041 2.7041V6.90984C2.7041 9.15701 3.18969 10.9488 4.18862 12.3877C4.93764 13.4667 5.99456 14.4115 7.50017 15.3448C9.00579 14.4115 10.0627 13.4667 10.8117 12.3878C11.8107 10.9488 12.2962 9.15701 12.2962 6.90984V2.7041H2.7041ZM8.60357 8.43081V11.4562H6.39674V8.43081C5.85711 8.07284 5.50111 7.46011 5.50111 6.76406C5.50115 5.66002 6.39613 4.76504 7.50017 4.76504C8.60422 4.76504 9.4992 5.66002 9.4992 6.76406C9.4992 7.46015 9.1432 8.07287 8.60357 8.43081Z" fill="#2D2F38"/>
<path d="M0 0V6.90972C0 9.72657 0.643517 12.0228 1.96729 13.9296C3.11954 15.5894 4.79528 16.9844 7.2408 18.3199L7.50002 18.4614L7.7592 18.3199C10.2048 16.9845 11.8805 15.5895 13.0327 13.9296C14.3565 12.0228 15 9.72657 15 6.90972V0H0ZM13.3777 6.90972C13.3777 9.38474 12.8289 11.3784 11.7001 13.0045C10.815 14.2794 9.56852 15.3716 7.77744 16.4419L7.50005 16.6076L7.22266 16.4419C5.43151 15.3716 4.18511 14.2794 3.30005 13.0044C2.17116 11.3784 1.6224 9.38481 1.6224 6.90972V1.62237H13.3777V6.90972H13.3777Z" fill="#838384"/>
</g>
</svg>
