<svg width="19" height="19" viewBox="0 0 19 19" fill="none" xmlns="http://www.w3.org/2000/svg">
<path fill-rule="evenodd" clip-rule="evenodd" d="M0.372483 6.12664C0 6.83311 0 7.63683 0 9.24427V14.2644C0 16.4968 0 17.613 0.794996 18.3065C1.55602 18.9704 2.76104 18.9987 5.10742 18.9999V13.0806C5.10742 11.7506 6.29538 10.8967 7.46456 10.8967H11.536C12.7052 10.8967 13.8931 11.7506 13.8931 13.0806V18.9999C16.2392 18.9987 17.444 18.9703 18.205 18.3065C19 17.613 19 16.4968 19 14.2644V9.24427C19 7.63683 19 6.83311 18.6275 6.12664C18.255 5.42017 17.5555 4.89711 16.1564 3.85101L14.7993 2.83624C12.2705 0.945414 11.0061 0 9.5 0C7.99388 0 6.72949 0.945414 4.2007 2.83624L2.84356 3.85101C1.4445 4.89711 0.744966 5.42017 0.372483 6.12664ZM11.8931 19V13.0806L11.8931 13.0805C11.8932 13.0768 11.8933 13.0451 11.8383 12.997C11.7803 12.9465 11.6765 12.8967 11.536 12.8967H7.46456C7.32407 12.8967 7.22021 12.9465 7.16229 12.997C7.10724 13.0451 7.1074 13.0768 7.10742 13.0805L7.10742 13.0806V19H11.8931Z" fill="#838384"/>
</svg>
