<svg width="9" height="5" viewBox="0 0 9 5" fill="none" xmlns="http://www.w3.org/2000/svg">
<path fill-rule="evenodd" clip-rule="evenodd" d="M6.8147 1.73694C6.69876 1.53259 6.57073 1.34525 6.48805 1.27754C6.48326 1.27382 6.47869 1.26981 6.4743 1.2657C6.3553 1.19922 6.24762 1.15658 6.15861 1.14825C5.84897 1.11938 5.52935 1.10462 5.21817 1.1055L5.14483 2.1686C5.50422 2.14733 5.86251 2.12185 6.19802 2.09801C6.47307 2.07843 6.73261 2.06001 6.97202 2.0456C6.92987 1.95057 6.87481 1.84297 6.8147 1.73694ZM8.88656 3.51804C8.9454 3.54869 8.98886 3.60666 8.9981 3.67739V3.8532C9.01311 3.96829 8.93194 4.07379 8.81685 4.08884L8.45135 4.13763C8.45303 4.11605 8.45416 4.09432 8.45472 4.07256V4.07207V4.07161V4.0714V4.07119V4.07073L8.45476 4.07028V4.06996V4.06982L8.45479 4.06933V4.06887V4.06845V4.06841V4.06792V4.0675L8.45483 4.06701V4.06694V4.06655L8.45486 4.06606V4.0656V4.06542V4.06514V4.06469V4.06419V4.06391V4.06374L8.4549 4.06328V4.06279V4.0624V4.06237L8.45493 4.06187V4.06138V4.06092V4.06089V4.06047V4.06001V4.05955V4.05938V4.05906L8.45497 4.05815L8.455 4.0579V4.05769V4.05723V4.05678V4.0559V4.0554V4.05491V4.05446V4.054V4.05354V4.05337V4.05305V4.05259V4.05214L8.45504 4.05189V4.05168V4.05119V4.05073L8.45507 4.05034V4.05024V4.04978V4.04932V4.04887V4.04837V4.04795V4.04746V4.04732V4.04697V4.04651V4.04658V4.04634V4.04609V4.04563V4.04517V4.04482V4.04472V4.04426V4.04377V4.04331L8.455 4.03048V4.02844L8.45493 4.02721L8.45472 4.01424L8.45469 4.01311C8.45458 4.00861 8.45444 4.00411 8.45423 3.99958L8.45416 3.99772L8.4536 3.98453L8.45349 3.98271L8.45286 3.97114L8.45275 3.9691L8.45261 3.96717L8.4518 3.95514L8.45173 3.95437L8.45166 3.9536L8.45071 3.94182L8.45057 3.93964L8.4505 3.93926L8.45033 3.93708L8.44941 3.92734L8.4492 3.92495L8.44906 3.92337L8.44776 3.91124L8.44755 3.90944L8.44621 3.89791L8.44562 3.8932L8.4454 3.89173L8.44439 3.88382L8.44431 3.88294L8.44368 3.87868L8.44224 3.86852L8.44136 3.86279L8.44034 3.85601L8.43918 3.84884L8.43753 3.83885L8.43728 3.83759L8.43718 3.83685L8.43514 3.82574L8.43468 3.82314L8.4343 3.82128L8.43282 3.81347L8.43254 3.8121L8.43131 3.80591L8.43124 3.80567L8.42966 3.79797L8.42948 3.79713L8.42828 3.7914L8.428 3.79024L8.42628 3.7825L8.42484 3.7761L8.42456 3.7748L8.42276 3.76707L8.42168 3.76246L8.42009 3.756L8.41749 3.7457L8.41675 3.74281L8.4151 3.73641L8.41303 3.72882L8.41092 3.72119L8.40874 3.7136L8.40835 3.71223L8.40652 3.70604L8.40431 3.69848L8.40209 3.69128L8.40195 3.69092L8.39963 3.6834L8.39742 3.67658L8.39679 3.67454L8.39267 3.6621L8.39197 3.66002L8.38736 3.64663L8.38687 3.64536L8.38448 3.63869L8.38181 3.63127L8.38153 3.63049L8.37907 3.62389L8.37633 3.61654L8.37348 3.60919L8.3706 3.60191L8.36789 3.5952L8.36768 3.59457L8.36469 3.58729C8.3617 3.58008 8.35864 3.57288 8.35552 3.56571L8.35537 3.56546L8.34961 3.55242C8.2908 3.42182 8.20836 3.30166 8.10476 3.19806C7.88009 2.97342 7.57737 2.84796 7.25961 2.84796C6.94185 2.84796 6.6391 2.97342 6.41447 3.19806C6.1898 3.42273 6.06437 3.72548 6.06437 4.04324C6.06437 4.09052 6.06718 4.13746 6.07259 4.18386H2.92733C2.93282 4.13746 2.93559 4.09052 2.93559 4.04324C2.93559 3.72548 2.81013 3.42273 2.58549 3.19806C2.36086 2.97342 2.05811 2.84796 1.74035 2.84796C1.42259 2.84796 1.11984 2.97342 0.895201 3.19806C0.765973 3.32732 0.66958 3.48246 0.610978 3.65134L0.609185 3.65658L0.606056 3.66586L0.605459 3.66765L0.605037 3.66892L0.603103 3.67482L0.60226 3.67746L0.59994 3.68481L0.599377 3.6866L0.597549 3.69254L0.597408 3.69307L0.595862 3.6982L0.59319 3.70724L0.591995 3.71138L0.589077 3.72172L0.587882 3.72608L0.587284 3.72822L0.585667 3.73423L0.585597 3.73455L0.58412 3.74014V3.74025L0.582573 3.74622L0.581167 3.75171L0.581027 3.75223L0.58071 3.75346L0.578179 3.76387L0.57723 3.76791L0.574945 3.77772L0.573925 3.78222L0.571675 3.79256L0.571254 3.79442L0.571218 3.7946L0.570902 3.79607L0.568652 3.80707L0.567738 3.81165L0.565734 3.82205L0.565523 3.82314L0.565172 3.82514L0.562957 3.83738L0.562922 3.83762V3.83773L0.560778 3.85035L0.56011 3.8546L0.558598 3.86434L0.557789 3.86986L0.556348 3.87977L0.556278 3.88048L0.556172 3.88111L0.555926 3.88301L0.554485 3.89408L0.554098 3.89728L0.552657 3.90966L0.552587 3.91039L0.552481 3.91155L0.551145 3.924L0.55104 3.92502L0.551005 3.92569L0.549845 3.93813L0.549563 3.94133L0.548544 3.95409L0.548509 3.95444L0.548474 3.95522L0.54763 3.96773L0.547524 3.96914L0.547489 3.96984L0.546751 3.98309L0.546681 3.98443C0.546435 3.98921 0.546224 3.99396 0.546048 3.99874L0.546013 3.99916C0.545872 4.00334 0.545732 4.00752 0.545626 4.01174L0.545591 4.01357V4.01487L0.545345 4.02711V4.02848V4.03069L0.545275 4.04335V4.04556V4.04648V4.04774V4.04968V4.04996V4.05217V4.05291V4.05439L0.54531 4.05607V4.05664V4.05885V4.05931V4.06106V4.06251V4.06328L0.545345 4.06549V4.06567L0.54538 4.06771V4.06887L0.545415 4.06989L0.54545 4.07203V4.07214L0.545485 4.07435V4.0752L0.545521 4.07653L0.545556 4.07843V4.07875L0.545626 4.08096V4.08159L0.545661 4.08318L0.545696 4.08476V4.08539L0.545767 4.08761V4.08796L0.545872 4.09112L0.545907 4.09204L0.546083 4.09643L0.546118 4.09745L0.546189 4.09861L0.5464 4.10293V4.103L0.546435 4.10378L0.546505 4.10518L0.546575 4.10698V4.1074L0.546681 4.10961L0.547208 4.1184L0.547278 4.11963L0.547349 4.12058L0.547489 4.1228C0.548614 4.13964 0.550091 4.1564 0.551884 4.17314V4.17321L0.55213 4.17535L0.552235 4.17634L0.552587 4.17947L0.552622 4.17968L0.553114 4.18403C0.555504 4.20446 0.558457 4.22471 0.561903 4.24489L0.183044 4.19433C0.0679137 4.17929 -0.0132225 4.07379 0.00178842 3.9587V3.78292C0.0116668 3.70717 0.0607422 3.6461 0.125954 3.61749L0.156749 3.07903C0.172357 3.08159 0.188669 3.08159 0.205121 3.07857L0.563555 3.01266C0.639699 2.9987 0.69011 2.92565 0.676154 2.84951C0.662198 2.77336 0.589147 2.72295 0.513003 2.73694L0.172744 2.79948L0.176505 2.73329C0.180583 2.65911 0.222663 2.59601 0.282742 2.5618C0.517784 2.40899 0.831923 2.27375 1.17274 2.16558C1.51771 2.05611 1.89415 1.97237 2.24537 1.92495C2.51416 1.68178 2.87738 1.38041 3.23093 1.14832C3.52 0.958589 3.80865 0.812276 4.04942 0.772235L4.05965 0.770583C4.05972 0.761478 4.06067 0.752268 4.06261 0.743022L4.19746 0.112072C4.21128 0.0458061 4.2697 0.000281176 4.33477 0.000351484V0H6.16195C6.23873 0 6.30106 0.0614497 6.30257 0.13784L6.34711 0.758631C6.58352 0.824897 6.84992 0.988892 7.11643 1.19469C7.40213 1.41542 7.6925 1.68565 7.94168 1.92899C8.27199 1.97286 8.39169 2.00918 8.58525 2.06799C8.60687 2.07456 8.63007 2.08159 8.70727 2.1042C8.80113 2.13176 8.86121 2.21905 8.85829 2.31245L8.86142 2.44685C8.85372 2.44551 8.84581 2.44484 8.83773 2.44484H8.47933C8.40167 2.44484 8.33871 2.50781 8.33871 2.58546C8.33871 2.66312 8.40167 2.72608 8.47933 2.72608H8.83773C8.84803 2.72608 8.85808 2.72492 8.86775 2.72284L8.88656 3.51804ZM4.93637 1.11077C4.64533 1.12097 4.3669 1.1461 4.11748 1.18758C3.94312 1.21655 3.70843 1.33931 3.4621 1.50102C3.19162 1.67855 2.9144 1.89978 2.68319 2.10009C2.72024 2.11306 2.75975 2.12508 2.80159 2.13612C2.9537 2.17619 3.13186 2.20147 3.32897 2.2097C3.77751 2.22833 4.31452 2.21307 4.86237 2.18442L4.93637 1.11077ZM6.06314 0.718168L6.03178 0.28127H4.44888L4.35235 0.730859C4.57568 0.70618 4.81421 0.691767 5.05958 0.686986C5.38887 0.680553 5.73026 0.691556 6.06314 0.718168ZM2.95338 2.72193H3.30493V3.07347H2.95338V2.72193ZM3.30493 3.07347H3.65647V3.42502H3.30493V3.07347ZM3.65647 2.72193H4.00801V3.07347H3.65647V2.72193ZM4.00801 3.07347H4.35956V3.42502H4.00801V3.07347ZM4.35956 2.72193H4.7111V3.07347H4.35956V2.72193ZM4.7111 3.07347H5.06264V3.42502H4.7111V3.07347ZM5.06264 2.72193H5.41419V3.07347H5.06264V2.72193ZM5.41419 3.07347H5.76573V3.42502H5.41419V3.07347ZM5.76573 2.72193H6.11727V3.07347H5.76573V2.72193Z" fill="#FF8311"/>
<path d="M7.25986 3.16438C7.5025 3.16438 7.72221 3.26274 7.88128 3.42178C8.04036 3.58082 8.13872 3.80053 8.13872 4.04324C8.13872 4.28587 8.04032 4.50559 7.88128 4.66466C7.72225 4.82366 7.50253 4.92206 7.25986 4.92206C7.01719 4.92206 6.79751 4.82366 6.6384 4.66466C6.4794 4.50562 6.381 4.28591 6.381 4.04324C6.381 3.80057 6.4794 3.58085 6.6384 3.42178C6.79751 3.26274 7.01722 3.16438 7.25986 3.16438ZM1.74063 3.16438C1.9833 3.16438 2.20301 3.26274 2.36205 3.42178C2.52109 3.58082 2.61949 3.80053 2.61949 4.04324C2.61949 4.28587 2.52109 4.50559 2.36205 4.66466C2.20301 4.82366 1.9833 4.92206 1.74063 4.92206C1.49796 4.92206 1.27824 4.82366 1.1192 4.66466C0.960167 4.50562 0.86177 4.28591 0.86177 4.04324C0.86177 3.80057 0.960132 3.58085 1.1192 3.42178C1.27828 3.26271 1.49796 3.16438 1.74063 3.16438ZM1.96439 3.81948C1.90715 3.76225 1.82802 3.72685 1.74063 3.72685C1.65323 3.72685 1.5741 3.76225 1.51687 3.81948C1.45964 3.87671 1.42424 3.95584 1.42424 4.04324C1.42424 4.1306 1.45964 4.20973 1.51687 4.26696C1.5741 4.32423 1.65323 4.35963 1.74063 4.35963C1.82802 4.35963 1.90712 4.32423 1.96439 4.26696C2.02162 4.20973 2.05702 4.1306 2.05702 4.04324C2.05702 3.95581 2.02162 3.87671 1.96439 3.81948ZM7.48358 3.81948C7.42635 3.76225 7.34725 3.72685 7.25986 3.72685C7.17247 3.72685 7.09337 3.76225 7.0361 3.81948C6.97891 3.87671 6.94347 3.95584 6.94347 4.04324C6.94347 4.1306 6.97891 4.20973 7.0361 4.26696C7.09337 4.32423 7.17247 4.35963 7.25986 4.35963C7.34725 4.35963 7.42635 4.32423 7.48358 4.26696C7.54081 4.20973 7.57625 4.1306 7.57625 4.04324C7.57625 3.95581 7.54081 3.87671 7.48358 3.81948Z" fill="#FF8311"/>
</svg>
