<svg width="15" height="15" viewBox="0 0 15 15" fill="none" xmlns="http://www.w3.org/2000/svg">
<g opacity="0.5">
<path d="M15.0001 10.1515C15.0001 8.29009 13.9323 6.62887 12.3329 5.8208C12.2833 9.38975 9.38975 12.2833 5.8208 12.3329C6.62887 13.9323 8.29009 15.0001 10.1515 15.0001C11.0242 15.0001 11.8729 14.7677 12.6186 14.326L14.9789 14.9789L14.326 12.6186C14.7677 11.8729 15.0001 11.0242 15.0001 10.1515Z" fill="#2D2F38"/>
<path d="M11.4551 5.72753C11.4551 2.56931 8.88576 0 5.72753 0C2.56931 0 0 2.56931 0 5.72753C0 6.75682 0.273971 7.75897 0.794219 8.63879L0.0210571 11.4339L2.81627 10.6608C3.6961 11.1811 4.69825 11.4551 5.72753 11.4551C8.88576 11.4551 11.4551 8.88576 11.4551 5.72753ZM4.84863 4.39453H3.96972C3.96972 3.42521 4.75822 2.63672 5.72753 2.63672C6.69685 2.63672 7.48535 3.42521 7.48535 4.39453C7.48535 4.88651 7.27706 5.35938 6.91371 5.69171L6.16699 6.37516V7.06054H5.28808V5.98812L6.32034 5.04329C6.50482 4.87449 6.60644 4.64412 6.60644 4.39453C6.60644 3.90987 6.21219 3.51562 5.72753 3.51562C5.24288 3.51562 4.84863 3.90987 4.84863 4.39453ZM5.28808 7.93945H6.16699V8.81835H5.28808V7.93945Z" fill="#838384"/>
</g>
</svg>
